<?xml version="1.0" encoding="UTF-8"?>
<svg version="1.1" xmlns="http://www.w3.org/2000/svg" width="5000" height="5000">
<path d="M0 0 C8.08101513 0.00713772 16.16201433 0.00213794 24.24302946 -0.00291242 C39.33421499 -0.01201261 54.42538693 -0.01186193 69.51657362 -0.00635067 C84.77214968 -0.00081363 100.02771683 0.0002851 115.28329344 -0.00382534 C116.25323405 -0.00408368 117.22317466 -0.00434203 118.22250741 -0.0046082 C122.17408169 -0.00567496 126.12565596 -0.0067724 130.07723022 -0.00790875 C166.73389357 -0.01844247 203.39055097 -0.01922478 240.04721518 -0.01361385 C275.36172507 -0.00821111 310.67623214 -0.00610932 345.9907424 -0.00865474 C348.21528216 -0.00880971 350.43982192 -0.00896402 352.66436167 -0.00911768 C361.6055387 -0.00973871 370.54671572 -0.01037605 379.48789275 -0.01103721 C404.47734893 -0.01287059 429.46680511 -0.01401226 454.45626135 -0.01460949 C455.59391736 -0.01463678 456.73157338 -0.01466407 457.90370382 -0.01469219 C494.11620272 -0.01550989 530.32870077 -0.01326143 566.5411994 -0.00891033 C568.30113902 -0.00869958 568.30113902 -0.00869958 570.09663297 -0.00848458 C589.14604529 -0.00619511 608.19545759 -0.00375599 627.24486989 -0.00130423 C702.77086308 0.00840595 778.29684916 0.00795768 853.82284231 -0.0017654 C872.85824905 -0.00420811 891.8936558 -0.00663036 910.92906256 -0.00891033 C912.68757887 -0.00912167 912.68757887 -0.00912167 914.48162076 -0.00933729 C950.65528139 -0.01365484 986.82894142 -0.01547723 1023.00260229 -0.01460949 C1024.7078891 -0.01456873 1024.7078891 -0.01456873 1026.44762614 -0.01452716 C1051.41251191 -0.01390198 1076.37739762 -0.01263427 1101.34228333 -0.01078848 C1110.27637805 -0.0101303 1119.21047278 -0.00950412 1128.1445675 -0.00888706 C1130.3668061 -0.00873228 1132.58904469 -0.00857482 1134.81128329 -0.00841467 C1170.10298904 -0.00587817 1205.3946917 -0.0087113 1240.68639704 -0.01411496 C1277.24919534 -0.01965201 1313.81198651 -0.01756064 1350.3747838 -0.00705236 C1354.31556869 -0.00594784 1358.25635359 -0.00487441 1362.1971385 -0.00382534 C1363.64767671 -0.00343472 1363.64767671 -0.00343472 1365.12751871 -0.00303621 C1380.32826714 0.00088084 1395.52900659 -0.00180802 1410.7297542 -0.00736335 C1425.74188011 -0.01270488 1440.75399114 -0.01070554 1455.7661152 -0.00133517 C1463.76842107 0.00347158 1471.7706964 0.00537264 1479.77300106 -0.00214714 C1528.74798248 -0.0455678 1577.63044633 1.05107716 1626.52469702 4.01072773 C1628.65004432 4.13908148 1630.77550759 4.2653683 1632.90099783 4.39133152 C1682.49799232 7.34003698 1732.05918841 10.67002507 1780.50301809 22.25897679 C1781.20986746 22.42762242 1781.91671682 22.59626805 1782.64498587 22.77002415 C1843.29615799 37.30007608 1900.89990189 59.04382743 1954.50301809 91.25897679 C1955.34123098 91.75816624 1956.17944388 92.25735569 1957.04305716 92.7716721 C1967.82678197 99.19462147 1978.26149316 106.00456329 1988.50301809 113.25897679 C1989.22489309 113.76686741 1989.94676809 114.27475804 1990.69051809 114.79803929 C2001.03753629 122.09125003 2011.00988635 129.72572555 2020.75008841 137.81024632 C2023.25313134 139.87891717 2025.78722185 141.90879894 2028.31551809 143.94647679 C2032.92075165 147.71502377 2037.33175344 151.66685982 2041.70223684 155.70428929 C2043.84067485 157.65483107 2046.00122963 159.55411924 2048.19344778 161.4423264 C2052.37775805 165.10012853 2056.33418276 168.94527199 2060.25692434 172.88007054 C2060.96147253 173.583662 2061.66602072 174.28725346 2062.39191885 175.01216587 C2063.86955176 176.48912327 2065.34594266 177.96732421 2066.82113333 179.44672093 C2069.05968291 181.69062764 2071.30352282 183.92914383 2073.54793997 186.16717991 C2074.99292213 187.61282297 2076.43759401 189.05877624 2077.88192434 190.50507054 C2078.87283827 191.49294811 2078.87283827 191.49294811 2079.88377066 192.50078282 C2084.28734756 196.92624215 2088.44254972 201.51779489 2092.50301809 206.25897679 C2092.96235235 206.7907201 2093.42168661 207.32246342 2093.89494009 207.87032017 C2100.52593775 215.5646727 2106.92103836 223.42295202 2113.12020559 231.46844944 C2114.01952888 232.63293337 2114.92296589 233.79425583 2115.83114309 234.95184788 C2136.83249668 261.73629479 2154.6586843 291.19497234 2170.50301809 321.25897679 C2170.99801809 322.19693089 2171.49301809 323.13488499 2172.00301809 324.10126194 C2185.13928455 349.18930728 2195.46880293 375.44385237 2204.50301809 402.25897679 C2204.87491263 403.35983616 2205.24680716 404.46069554 2205.62997122 405.59491429 C2213.25350943 428.45208351 2218.96047136 451.82598564 2224.50301809 475.25897679 C2224.79724661 476.49631565 2225.09147513 477.73365452 2225.39461966 479.0084885 C2243.72635876 557.75767868 2242.68911104 643.98268388 2244.05356474 724.4192799 C2244.07492705 725.65926503 2244.09628937 726.89925016 2244.11829903 728.1768106 C2244.56298949 754.52429246 2244.62312483 780.86565166 2244.57529838 807.21618013 C2244.56584636 813.06300634 2244.56163869 818.90983519 2244.5573685 824.75666715 C2244.54919316 835.87019697 2244.53785552 846.98372012 2244.52418705 858.09724444 C2244.50357521 874.9486042 2244.4941557 891.79995492 2244.48943819 908.65132601 C2244.48884458 910.77071622 2244.48822669 912.89010642 2244.48760128 915.00949661 C2244.48538451 922.52361567 2244.48538451 922.52361567 2244.48322959 930.03773475 C2244.47858377 946.49465701 2244.47097607 962.95157753 2244.46291494 979.40849842 C2244.46177037 981.74741577 2244.46063347 984.08633312 2244.45949908 986.42525047 C2244.4564113 992.79026082 2244.45331486 999.15527116 2244.45018761 1005.52028148 C2244.44483601 1016.41381666 2244.43959798 1027.30735189 2244.43443703 1038.20088716 C2244.39442356 1122.6525749 2244.35003288 1207.10425996 2244.30169363 1291.55594334 C2244.30112721 1292.54577167 2244.30056079 1293.53560001 2244.29997721 1294.55542314 C2244.27427241 1339.46387261 2244.24802449 1384.37232174 2244.22109841 1429.2807705 C2244.20983445 1448.07032068 2244.19864563 1466.8598709 2244.18750097 1485.64942115 C2244.18563477 1488.79498921 2244.18376639 1491.94055728 2244.18189793 1495.08612534 C2244.15309494 1543.6099481 2244.12601016 1592.13377107 2244.10390921 1640.65759739 C2244.10319406 1642.22771181 2244.10319406 1642.22771181 2244.10246447 1643.8295457 C2244.09478407 1660.71576063 2244.08725115 1677.60197563 2244.07973699 1694.48819063 C2244.05805656 1743.20434145 2244.03534305 1791.92049078 2244.00575514 1840.63663754 C2244.00484184 1842.14157472 2244.00484184 1842.14157472 2244.0039101 1843.67691468 C2243.99052197 1865.70677812 2243.97659766 1887.7366412 2243.96216754 1909.76650398 C2243.95637137 1918.62915169 2243.95065045 1927.49179944 2243.94495459 1936.35444721 C2243.94432953 1937.32410361 2243.94370447 1938.29376001 2243.94306047 1939.29279993 C2243.92306473 1970.36918169 2243.90922097 2001.44556234 2243.89869994 2032.52194864 C2243.88808022 2063.80284327 2243.87123552 2095.08372808 2243.84596777 2126.3646145 C2243.84246311 2130.70504084 2243.83902801 2135.04546724 2243.8356349 2139.38589367 C2243.83496739 2140.23650216 2243.83429989 2141.08711064 2243.83361215 2141.96349514 C2243.82331458 2155.31411797 2243.81954217 2168.66473393 2243.81864022 2182.01536035 C2243.81760985 2195.20933196 2243.80933339 2208.40328375 2243.79386217 2221.59724647 C2243.78580949 2228.624288 2243.78058478 2235.65129698 2243.78473928 2242.67834286 C2243.80747972 2289.59817059 2242.58642193 2336.44311003 2239.75126715 2383.28065571 C2239.6229134 2385.40600301 2239.49662658 2387.53146628 2239.37066336 2389.65695652 C2236.4219579 2439.25395101 2233.09196981 2488.8151471 2221.50301809 2537.25897679 C2221.33437246 2537.96582615 2221.16572683 2538.67267552 2220.99197073 2539.40094456 C2206.4619188 2600.05211668 2184.71816745 2657.65586058 2152.50301809 2711.25897679 C2152.00382864 2712.09718968 2151.50463919 2712.93540257 2150.99032278 2713.79901585 C2144.56737341 2724.58274066 2137.75743159 2735.01745185 2130.50301809 2745.25897679 C2129.99512747 2745.98085179 2129.48723684 2746.70272679 2128.96395559 2747.44647679 C2121.67074485 2757.79349498 2114.03626933 2767.76584505 2105.95174856 2777.5060471 C2103.88307771 2780.00909003 2101.85319594 2782.54318054 2099.81551809 2785.07147679 C2095.97498463 2789.76467915 2091.93861293 2794.25184314 2087.83114309 2798.71210179 C2085.88501217 2800.84109065 2083.99728378 2803.00054331 2082.12801809 2805.19647679 C2077.65542424 2810.35060875 2072.75061572 2815.08968005 2067.8973052 2819.8810471 C2064.50710675 2823.2314726 2061.15007759 2826.61467703 2057.79598684 2830.00116429 C2056.42754989 2831.37882073 2055.05905912 2832.75642373 2053.69051809 2834.13397679 C2053.01698294 2834.81589085 2052.34344778 2835.49780491 2051.64950247 2836.20038304 C2047.10374793 2840.7678876 2042.40343628 2845.07577085 2037.50301809 2849.25897679 C2036.96797659 2849.72094456 2036.43293509 2850.18291233 2035.8816802 2850.65887913 C2028.19222772 2857.28887386 2020.33554278 2863.67969391 2012.29354544 2869.87616429 C2011.12906151 2870.77548757 2009.96773905 2871.67892458 2008.810147 2872.58710179 C1988.63390212 2888.40704588 1966.74241038 2902.53566298 1944.50301809 2915.25897679 C1943.73602591 2915.69886936 1942.96903372 2916.13876194 1942.17879934 2916.5919846 C1932.49578372 2922.11876445 1922.68462548 2927.34077963 1912.65487356 2932.20966038 C1910.36985233 2933.32391285 1908.0950099 2934.45762261 1905.81942434 2935.59100804 C1817.9023271 2978.92823441 1721.33209287 2991.62359874 1519.13449831 3000.38761124 C1516.39237098 3000.38840815 1513.65024533 3000.39070754 1510.90811883 3000.39292347 C1504.98394566 3000.39692961 1499.0597813 3000.39732479 1493.13560728 3000.39521753 C1484.26650129 3000.39208021 1475.39740321 3000.39477823 1466.52829779 3000.39851624 C1451.40346896 3000.40472117 1436.27864299 3000.40622664 1421.15381308 3000.40509876 C1405.84181378 3000.40397135 1390.52981691 3000.40501867 1375.21781798 3000.40867123 C1374.24792734 3000.40890088 1373.27803671 3000.40913053 1372.27875546 3000.40936715 C1368.32798897 3000.41030887 1364.37722248 3000.41126457 1360.42645599 3000.41223834 C1319.28320356 3000.42236417 1278.13995249 3000.42544366 1236.99669895 3000.42603045 C1232.57248995 3000.4260952 1228.14828094 3000.42616314 1223.72407193 3000.42623386 C1222.62607395 3000.42625086 1221.52807597 3000.42626787 1220.39680532 3000.42628539 C1196.02469916 3000.42669449 1171.65259327 3000.42888655 1147.28048725 3000.4313897 C1137.23276756 3000.43241813 1127.18504786 3000.43340818 1117.13732816 3000.43440595 C1115.47183177 3000.43457184 1115.47183177 3000.43457184 1113.77268899 3000.43474107 C1050.16936179 3000.44106263 986.56603476 3000.44519048 922.96270723 3000.44473252 C920.58403653 3000.44471674 918.20536583 3000.444701 915.82669512 3000.44468531 C905.08816696 3000.44461193 894.3496388 3000.44452376 883.61111064 3000.44443142 C878.82293858 3000.4443903 874.03476653 3000.44435015 869.24659447 3000.44431011 C866.85003062 3000.44428971 864.45346677 3000.44426869 862.05690292 3000.44424705 C786.32922252 3000.4435673 710.6015468 3000.45087667 634.8738677 3000.46478733 C615.80251349 3000.46828874 596.73115927 3000.47175837 577.65980501 3000.47505173 C575.89803934 3000.47535604 575.89803934 3000.47535604 574.10068244 3000.4756665 C537.85842775 3000.48188865 501.61617345 3000.48564846 465.37391825 3000.48690972 C463.66524192 3000.48696964 463.66524192 3000.48696964 461.92204689 3000.48703078 C436.90642402 3000.48788436 411.89080118 3000.48814515 386.87517831 3000.4878604 C377.92225425 3000.48776393 368.9693302 3000.48771188 360.01640614 3000.48768167 C357.78938194 3000.48767376 355.56235775 3000.48766355 353.33533355 3000.48765105 C317.95649424 3000.48747525 282.57765896 3000.49315139 247.19882081 3000.50180487 C211.52672389 3000.51048565 175.85463252 3000.51261984 140.18253498 3000.50604354 C135.23370563 3000.50513148 130.28487626 3000.50428814 125.33604689 3000.50348553 C124.36610617 3000.50332544 123.39616545 3000.50316535 122.39683259 3000.50300042 C107.14940758 3000.5006638 91.9019923 3000.50496668 76.65456912 3000.51215672 C61.59589371 3000.5191147 46.5372324 3000.51872696 31.47855727 3000.51096458 C23.45089429 3000.50701664 15.42326231 3000.50599097 7.3956019 3000.51442193 C-41.63399998 3000.56331916 -90.56982758 2999.47018038 -139.51866083 2996.50722584 C-141.64400813 2996.37887209 -143.7694714 2996.25258527 -145.89496164 2996.12662205 C-194.04207367 2993.2641169 -242.40061267 2990.24255962 -289.49698191 2979.25897679 C-290.72416941 2978.9771555 -291.95135691 2978.69533421 -293.21573191 2978.40497288 C-354.66731081 2964.15179545 -413.34580966 2941.80350451 -467.49698191 2909.25897679 C-468.3351948 2908.75978733 -469.17340769 2908.26059788 -470.03702097 2907.74628147 C-480.82074578 2901.3233321 -491.25545697 2894.51339028 -501.49698191 2887.25897679 C-502.57979441 2886.49714085 -502.57979441 2886.49714085 -503.68448191 2885.71991429 C-514.02973187 2878.4279499 -524.00089626 2870.79499312 -533.73965769 2862.71210179 C-536.26631558 2860.62281757 -538.82166097 2858.5692641 -541.37198191 2856.50897679 C-545.756024 2852.92024068 -549.98302624 2849.18561874 -554.16885691 2845.36835179 C-556.22851224 2843.50222111 -558.32087085 2841.68827891 -560.43448191 2839.88397679 C-564.81069204 2836.0859245 -568.83647607 2831.9506955 -572.88370066 2827.80975804 C-575.42444616 2825.24609146 -575.42444616 2825.24609146 -578.13370066 2823.14960179 C-580.26729919 2821.44272296 -581.8911502 2819.7943173 -583.62198191 2817.69647679 C-586.59034503 2814.21610343 -589.74050584 2810.96741734 -592.99698191 2807.75897679 C-597.3800468 2803.42235203 -601.52072308 2798.97034228 -605.49698191 2794.25897679 C-606.31682566 2793.30507054 -607.13666941 2792.35116429 -607.98135691 2791.36835179 C-614.22612587 2784.08260104 -620.25747594 2776.65052703 -626.11416941 2769.04950413 C-627.01349269 2767.8850202 -627.9169297 2766.72369774 -628.82510691 2765.56610569 C-649.82646049 2738.78165879 -667.65264812 2709.32298123 -683.49698191 2679.25897679 C-683.99198191 2678.32102268 -684.48698191 2677.38306858 -684.99698191 2676.41669163 C-698.13447176 2651.32630981 -708.45147846 2625.07229764 -717.49698191 2598.25897679 C-717.86355905 2597.17938694 -718.2301362 2596.0997971 -718.60782175 2594.98749241 C-750.60732684 2499.60628478 -755.55760192 2396.26866824 -756.62561636 2274.90607437 C-756.62641327 2272.16565247 -756.62871266 2269.42523225 -756.63092859 2266.68481117 C-756.63493469 2260.7643784 -756.63532993 2254.84395442 -756.63322265 2248.92352079 C-756.6300853 2240.06001432 -756.63278337 2231.19651576 -756.63652136 2222.33300985 C-756.64272626 2207.2177217 -756.64423176 2192.10243642 -756.64310388 2176.98714718 C-756.64197647 2161.68482322 -756.6430238 2146.3825017 -756.64667635 2131.08017811 C-756.646906 2130.11089742 -756.64713565 2129.14161673 -756.64737227 2128.1429639 C-756.64831399 2124.19468139 -756.64926969 2120.24639889 -756.65024346 2116.29811638 C-756.66036927 2075.18081123 -756.66344878 2034.06350745 -756.66403557 1992.9462012 C-756.66410032 1988.52478737 -756.66416826 1984.10337354 -756.66423898 1979.68195972 C-756.66425598 1978.58465531 -756.66427299 1977.48735091 -756.66429051 1976.35679486 C-756.66469961 1952.00004019 -756.66689167 1927.64328578 -756.66939482 1903.28653125 C-756.67042325 1893.24512744 -756.6714133 1883.20372362 -756.67241107 1873.16231981 C-756.67252166 1872.05268668 -756.67263225 1870.94305354 -756.67274619 1869.79979517 C-756.67906775 1806.23646928 -756.6831956 1742.67314357 -756.68273764 1679.10981735 C-756.68272186 1676.73264449 -756.68270612 1674.35547162 -756.68269043 1671.97829876 C-756.68261705 1661.24653364 -756.68252888 1650.51476851 -756.68243654 1639.78300339 C-756.68239542 1634.99784732 -756.68235527 1630.21269125 -756.68231523 1625.42753518 C-756.68229483 1623.03248088 -756.68227381 1620.63742659 -756.68225217 1618.2423723 C-756.68157242 1542.56243963 -756.68888178 1466.88251165 -756.70279245 1391.2025803 C-756.70629386 1372.14325764 -756.70976349 1353.08393497 -756.71305685 1334.02461228 C-756.71325972 1332.85084258 -756.7134626 1331.67707289 -756.71367162 1330.46773441 C-756.71989378 1294.24829615 -756.72365358 1258.02885826 -756.72491484 1221.80941948 C-756.72495479 1220.67101787 -756.72499474 1219.53261625 -756.7250359 1218.35971762 C-756.72588948 1193.35980825 -756.72615027 1168.3598989 -756.72586552 1143.35998952 C-756.72576905 1134.41268748 -756.725717 1125.46538545 -756.72568679 1116.51808341 C-756.72567888 1114.29245792 -756.72566867 1112.06683243 -756.72565617 1109.84120693 C-756.72548037 1074.48469025 -756.73115649 1039.1281776 -756.73980999 1003.77166208 C-756.7484908 968.12203706 -756.75062493 932.4724176 -756.74404866 896.82279197 C-756.7431366 891.8770627 -756.74229326 886.93133342 -756.74149065 881.98560414 C-756.74133056 881.01627116 -756.74117047 880.04693819 -756.74100554 879.04823149 C-756.73866894 863.81045894 -756.74297177 848.57269612 -756.75016184 833.3349254 C-756.75711987 818.28572398 -756.75673201 803.23653666 -756.7489697 788.18733551 C-756.7450218 780.16474773 -756.74399596 772.14219097 -756.75242705 764.11960577 C-756.80134529 715.10069261 -755.70753897 666.17545017 -752.74523096 617.23729786 C-752.61687721 615.11195056 -752.49059039 612.98648729 -752.36462717 610.86099705 C-749.50212202 562.71388502 -746.48056474 514.35534602 -735.49698191 467.25897679 C-735.21516062 466.03178929 -734.93333933 464.80460179 -734.642978 463.54022679 C-720.38980057 402.08864788 -698.04150963 343.41014903 -665.49698191 289.25897679 C-664.99779245 288.4207639 -664.498603 287.582551 -663.98428659 286.71893772 C-657.56133722 275.93521291 -650.7513954 265.50050172 -643.49698191 255.25897679 C-642.98909128 254.53710179 -642.48120066 253.81522679 -641.95791941 253.07147679 C-634.66470866 242.72445859 -627.03023315 232.75210853 -618.94571237 223.01190647 C-616.87704152 220.50886354 -614.84715976 217.97477303 -612.80948191 215.44647679 C-609.04093492 210.84124323 -605.08909887 206.43024144 -601.05166941 202.05975804 C-599.10112762 199.92132003 -597.20183946 197.76076525 -595.3136323 195.5685471 C-591.65583016 191.38423683 -587.81068671 187.42781212 -583.87588816 183.50507054 C-582.82050096 182.44824826 -582.82050096 182.44824826 -581.74379282 181.37007603 C-580.26683543 179.89244312 -578.78863448 178.41605222 -577.30923777 176.94086155 C-575.06533106 174.70231197 -572.82681486 172.45847206 -570.58877878 170.21405491 C-569.14313573 168.76907275 -567.69718245 167.32440087 -566.25088816 165.88007054 C-565.5923031 165.21946125 -564.93371805 164.55885197 -564.25517588 163.87822422 C-559.82971655 159.47464732 -555.23816381 155.31944516 -550.49698191 151.25897679 C-549.69936693 150.5699754 -549.69936693 150.5699754 -548.88563852 149.86705479 C-541.19128599 143.23605713 -533.33300668 136.84095652 -525.28750925 130.64178929 C-524.12302532 129.742466 -522.96170286 128.83902899 -521.80411081 127.93085179 C-495.01966391 106.9294982 -465.56098635 89.10331058 -435.49698191 73.25897679 C-434.5590278 72.76397679 -433.6210737 72.26897679 -432.65469675 71.75897679 C-407.56665141 58.62271033 -381.31210632 48.29319195 -354.49698191 39.25897679 C-353.39612253 38.88708225 -352.29526316 38.51518772 -351.16104441 38.13202366 C-310.10203005 24.43763476 -267.526751 14.79136378 -224.49698191 10.25897679 C-223.33827585 10.13682804 -223.33827585 10.13682804 -222.15616159 10.01221165 C-197.50563028 7.44108455 -172.79716122 5.7347691 -148.06047373 4.26092991 C-146.01079693 4.13853392 -143.9612205 4.01456436 -141.91165476 3.89032444 C-131.77633188 3.28249958 -121.63830155 2.75528039 -111.49698191 2.25897679 C-110.63118476 2.2164573 -109.76538761 2.17393782 -108.87335419 2.13012986 C-72.57975436 0.36644747 -36.32748229 -0.03407292 0 0 Z " fill="#000000" transform="translate(1756.4969819058315,999.74102321401)"/>
<path d="M0 0 C1.04917288 -0.00044186 1.04917288 -0.00044186 2.11954117 -0.00089264 C23.70724953 -0.00235869 45.07720403 0.24018569 66.5 3.25 C67.21128052 3.34945923 67.92256104 3.44891846 68.65539551 3.5513916 C95.68384313 7.36680919 122.33644273 12.83145978 148.25537109 21.51171875 C150.64732528 22.29845678 153.04937217 23.04403012 155.45703125 23.78125 C164.36010986 26.50996321 172.99086904 29.43840381 181.5 33.25 C182.90851617 33.85755501 184.31740129 34.46425508 185.7265625 35.0703125 C215.66911919 48.08854562 243.94645242 64.26778359 270.5 83.25 C271.19963867 83.74532227 271.89927734 84.24064453 272.62011719 84.75097656 C303.44141691 106.5799006 332.66650262 129.92438261 355.5 160.25 C355.99580566 160.90000977 356.49161133 161.55001953 357.00244141 162.21972656 C380.30430613 192.89206443 397.88225781 228.16535522 413.5 263.25 C414.25506836 264.92594238 414.25506836 264.92594238 415.02539062 266.63574219 C433.57334701 307.93411235 446.88512629 351.13275756 453.75 395.9375 C453.97671387 397.392771 453.97671387 397.392771 454.20800781 398.87744141 C457.35963067 420.80007312 457.79617678 442.79806193 457.75073375 464.9024271 C457.74466676 468.96144093 457.75041928 473.02044288 457.75455457 477.07945681 C457.76019639 484.16740041 457.75853249 491.2553118 457.7518692 498.34325409 C457.74198887 508.88254684 457.74369981 519.42181634 457.7476195 529.96111187 C457.75387305 547.69656794 457.75074826 565.43201066 457.74202538 583.16746521 C457.7333973 600.71390405 457.72850555 618.26033689 457.72869301 635.80677795 C457.72870065 636.90012829 457.7287083 637.99347863 457.72871618 639.1199608 C457.72875709 643.55839501 457.7288227 647.99682922 457.72892199 652.43526343 C457.72982672 694.01091457 457.71990139 735.58655657 457.70449232 777.16220454 C457.69084688 814.11595019 457.68463206 851.06968936 457.68530273 888.0234375 C457.68534315 890.39979408 457.68538351 892.77615066 457.68542381 895.15250725 C457.68544416 896.32732931 457.68546452 897.50215137 457.68548548 898.7125741 C457.68558627 904.62623094 457.68567686 910.53988778 457.68575573 916.45354462 C457.68577244 917.62018043 457.68578916 918.78681625 457.68580638 919.98880466 C457.68617111 950.87141537 457.6816381 981.75402527 457.67542917 1012.6366353 C457.67520889 1013.73428928 457.67498862 1014.83194325 457.67476168 1015.96285947 C457.67387345 1020.37679832 457.67298507 1024.79073717 457.67207072 1029.20467601 C457.6689075 1044.57881161 457.66740106 1059.95294657 457.66695923 1075.32708248 C457.66636339 1095.11754541 457.66239284 1114.90800298 457.65252777 1134.69846362 C457.6473976 1145.17187794 457.64500847 1155.6452844 457.64652396 1166.11869992 C457.64725486 1173.10037572 457.64438123 1180.08204384 457.63848015 1187.06371717 C457.63521042 1191.05007491 457.63356529 1195.03641608 457.63624074 1199.02277464 C457.63863393 1202.64078478 457.63651689 1206.25876164 457.63062263 1209.87676752 C457.62868577 1211.80789529 457.63170677 1213.73902603 457.63486269 1215.67015219 C457.63210295 1216.79839344 457.6293432 1217.92663469 457.62649983 1219.08906507 C457.62620833 1220.06911315 457.62591683 1221.04916122 457.6256165 1222.05890772 C457.5 1224.25 457.5 1224.25 456.5 1225.25 C454.56610876 1225.34770914 452.62858718 1225.37371302 450.69222927 1225.37304783 C449.42228223 1225.37503888 448.15233519 1225.37702993 446.84390491 1225.37908131 C445.4162357 1225.37622771 443.98856668 1225.3732821 442.56089783 1225.37025452 C441.05860725 1225.37069009 439.55631675 1225.37156473 438.05402666 1225.37284368 C433.90610354 1225.37509145 429.75820598 1225.37106354 425.61028612 1225.36606562 C421.14468596 1225.36176532 416.67908736 1225.36320724 412.21348572 1225.3639679 C404.46997165 1225.3644934 396.72646598 1225.36134386 388.98295403 1225.35573006 C377.78700083 1225.34761861 366.59105171 1225.3450002 355.39509589 1225.34374207 C337.2323891 1225.34155099 319.06968678 1225.33488939 300.90698242 1225.32543945 C283.25887067 1225.31626678 265.61076014 1225.30918524 247.96264648 1225.30493164 C246.87564282 1225.30466892 245.78863915 1225.30440619 244.66869598 1225.30413551 C239.21576468 1225.30283051 233.76283338 1225.3015668 228.30990207 1225.30032361 C183.03993161 1225.28994925 137.76996604 1225.27232942 92.5 1225.25 C92.50015598 1224.68251751 92.50031196 1224.11503501 92.50047267 1223.53035608 C92.51742905 1161.71062703 92.53313308 1099.89089773 92.54234314 1038.07116699 C92.54255023 1036.68472609 92.54255023 1036.68472609 92.54276149 1035.27027629 C92.54575481 1015.18006224 92.54852493 995.08984817 92.55106533 974.99963406 C92.5523126 965.14656593 92.55360917 955.29349781 92.55493164 945.44042969 C92.5550624 944.45996141 92.55519316 943.47949314 92.55532788 942.4693137 C92.55958479 910.72287686 92.56709278 878.97644181 92.57629722 847.23000605 C92.58574333 814.59053938 92.59188858 781.95107371 92.59391499 749.3116057 C92.59420312 744.69534191 92.59452876 740.07907812 92.59487724 735.46281433 C92.59497838 734.10007203 92.59497838 734.10007203 92.59508156 732.70979959 C92.59626059 718.11987718 92.60089139 703.52995783 92.60683203 688.94003666 C92.61273849 674.25146063 92.61496319 659.56288761 92.61350138 644.87431043 C92.61274417 636.16106833 92.61473816 627.44783733 92.62079754 618.73459725 C92.62457825 612.89596239 92.62464227 607.05733472 92.62183181 601.21869936 C92.62033812 597.90361089 92.62089021 594.58855997 92.62488318 591.27347118 C92.69278481 560.86129389 92.69278481 560.86129389 90.3125 530.5625 C90.12457886 528.9856543 90.12457886 528.9856543 89.93286133 527.37695312 C87.44711724 507.9250419 83.53125782 488.58906149 76.5 470.25 C76.10167969 469.2084375 75.70335938 468.166875 75.29296875 467.09375 C74.09471906 464.1121521 72.81432511 461.18224082 71.5 458.25 C71.10288818 457.33347656 71.10288818 457.33347656 70.69775391 456.3984375 C50.32399514 409.51466099 12.25396474 373.99193848 -35.03637695 355.1496582 C-49.88477569 349.41075688 -64.96940994 344.91486294 -80.625 342 C-81.43380615 341.84885742 -82.2426123 341.69771484 -83.07592773 341.54199219 C-98.64703362 338.84139518 -114.21756234 337.86929056 -130 337.9375 C-131.29411804 337.93973572 -131.29411804 337.93973572 -132.61437988 337.9420166 C-154.59048676 338.00978478 -176.08449124 340.18762993 -197.5 345.25 C-198.43328125 345.47059082 -199.3665625 345.69118164 -200.328125 345.91845703 C-212.72346566 348.90047103 -224.71365707 352.37868487 -236.5 357.25 C-237.29664062 357.57484375 -238.09328125 357.8996875 -238.9140625 358.234375 C-292.06268643 380.92704589 -330.97771368 421.9857176 -353.26171875 475.3203125 C-354.40497317 478.27972783 -355.47904251 481.24664522 -356.5 484.25 C-356.99533895 485.56426617 -357.49489461 486.8769563 -358 488.1875 C-358.23074219 488.81527344 -358.46148438 489.44304688 -358.69921875 490.08984375 C-359.30894029 491.73460479 -359.94055497 493.37126807 -360.58203125 495.00390625 C-370.44257726 521.01696572 -375.67123256 549.94394085 -375.63587189 577.75391483 C-375.63841451 578.87610356 -375.64095713 579.9982923 -375.6435768 581.15448675 C-375.6508914 584.91168015 -375.65117185 588.66884062 -375.65148926 592.42604065 C-375.65478913 595.1480789 -375.65958553 597.87011406 -375.66431475 600.59215015 C-375.67380926 606.50863886 -375.67966595 612.4251224 -375.68312263 618.34161758 C-375.68828578 627.13923474 -375.69914363 635.93683846 -375.71120207 644.73444855 C-375.73134766 659.53484684 -375.74705053 674.33524666 -375.76036072 689.13565254 C-375.77858925 709.33811219 -375.80329572 729.54056025 -375.82973462 749.74301063 C-375.84204257 759.15425754 -375.85403423 768.56550486 -375.86594391 777.97675228 C-375.86713643 778.91881295 -375.86832896 779.86087361 -375.86955762 780.83148157 C-375.8978591 803.24678273 -375.92306672 825.66208719 -375.94775391 848.07739258 C-375.9488351 849.05803945 -375.9499163 850.03868632 -375.95103026 851.04904976 C-375.96857651 866.96745863 -375.98593498 882.88586771 -376.00325525 898.80427682 C-376.01950074 913.73483373 -376.03580759 928.66539057 -376.05224609 943.59594727 C-376.05332556 944.57743773 -376.05440503 945.5589282 -376.0555172 946.5701608 C-376.08016436 968.96490447 -376.10570016 991.35964664 -376.13405609 1013.75438595 C-376.13524634 1014.69469453 -376.13643659 1015.63500311 -376.13766291 1016.60380589 C-376.14956335 1025.98899055 -376.161621 1035.374175 -376.17391312 1044.75935916 C-376.20031675 1064.9451411 -376.22396302 1085.13092099 -376.24208651 1105.31671217 C-376.25533074 1120.02159758 -376.27196318 1134.72647571 -376.29218161 1149.43135322 C-376.30408726 1158.17836182 -376.31313695 1166.92536303 -376.31822758 1175.67237831 C-376.32188861 1181.5038167 -376.32911209 1187.33524341 -376.3393119 1193.16667402 C-376.34502839 1196.4963352 -376.34856178 1199.82596115 -376.34884077 1203.15562982 C-376.34937542 1206.72999617 -376.35593393 1210.30429971 -376.36412811 1213.87865543 C-376.3628196 1214.92882925 -376.36151108 1215.97900306 -376.36016291 1217.06100032 C-376.3635874 1218.00387388 -376.36701188 1218.94674744 -376.37054014 1219.91819292 C-376.37140827 1220.73688155 -376.37227639 1221.55557018 -376.37317082 1222.39906755 C-376.5 1224.25 -376.5 1224.25 -377.5 1225.25 C-379.42251145 1225.34859462 -381.34870473 1225.37555669 -383.27374268 1225.37584114 C-384.53610622 1225.37844889 -385.79846977 1225.38105664 -387.09908676 1225.38374341 C-388.51820642 1225.38158088 -389.93732594 1225.3793242 -391.35644531 1225.37698364 C-392.84977379 1225.37813448 -394.34310199 1225.37972175 -395.8364296 1225.38171089 C-399.95961696 1225.38590937 -404.08278137 1225.3838112 -408.20596886 1225.38072467 C-412.64500463 1225.37847289 -417.08403631 1225.38194907 -421.52307129 1225.38470459 C-430.22689522 1225.38916367 -438.93071056 1225.38818521 -447.63453484 1225.38529195 C-454.70496568 1225.38303845 -461.7753941 1225.38272516 -468.8458252 1225.38381577 C-469.85008175 1225.383969 -470.85433831 1225.38412223 -471.88902688 1225.38428011 C-473.92881362 1225.38459982 -475.96860035 1225.38492403 -478.00838709 1225.3852527 C-497.15949292 1225.38810789 -516.31059397 1225.38481985 -535.46169901 1225.37945233 C-551.91327048 1225.37498426 -568.3648349 1225.37576018 -584.81640625 1225.38037109 C-603.89648937 1225.38571616 -622.9765683 1225.3878332 -642.05665207 1225.38475883 C-644.08915965 1225.38444026 -646.12166723 1225.38412589 -648.1541748 1225.38381577 C-649.15434702 1225.38366149 -650.15451924 1225.38350721 -651.1849997 1225.38334826 C-658.25130453 1225.3824829 -665.31760671 1225.38394639 -672.38391113 1225.38629532 C-680.9891029 1225.38909277 -689.59428553 1225.38835623 -698.19947624 1225.38301457 C-702.59444049 1225.38037681 -706.98938949 1225.37937375 -711.38435364 1225.38266373 C-715.40102808 1225.38562516 -719.41767303 1225.38403645 -723.43434477 1225.37868617 C-724.89394587 1225.37756133 -726.35354942 1225.37815464 -727.81314898 1225.38056196 C-729.78418343 1225.38356553 -731.75522479 1225.37991283 -733.72625732 1225.37584114 C-734.82500561 1225.37567879 -735.92375389 1225.37551644 -737.05579758 1225.37534916 C-739.5 1225.25 -739.5 1225.25 -740.5 1224.25 C-740.59934603 1221.63090603 -740.63251877 1219.03815855 -740.6241985 1216.41854233 C-740.62547658 1215.5825626 -740.62675467 1214.74658287 -740.62807148 1213.88527042 C-740.63117069 1211.04178595 -740.62704918 1208.19835545 -740.62304783 1205.3548727 C-740.62378651 1203.30378259 -740.62496406 1201.2526926 -740.62654433 1199.20160297 C-740.62963497 1193.51133127 -740.62642045 1187.82107722 -740.62226619 1182.13080683 C-740.61885027 1175.96072332 -740.62119928 1169.79064171 -740.62284368 1163.62055784 C-740.62492382 1152.78888573 -740.62329535 1141.95722048 -740.61920547 1131.12554932 C-740.6148343 1119.49781804 -740.61263208 1107.87008938 -740.61310768 1096.24235725 C-740.61313637 1095.50917967 -740.61316507 1094.77600209 -740.61319463 1094.02060701 C-740.61335099 1090.28243192 -740.61354294 1086.54425684 -740.61374746 1082.80608176 C-740.61515666 1055.71697704 -740.61171824 1028.62787467 -740.60573006 1001.53877068 C-740.59981209 974.70329718 -740.59595587 947.86782468 -740.59487724 921.03235054 C-740.59484283 920.19963107 -740.59480842 919.3669116 -740.59477296 918.5089582 C-740.59445978 910.90359803 -740.59417208 903.29823786 -740.59391499 895.69287768 C-740.59327551 876.7849168 -740.59231613 857.87695595 -740.59113979 838.96899509 C-740.59108648 838.10786963 -740.59103316 837.24674416 -740.59097823 836.35952399 C-740.58835529 794.44793423 -740.58204716 752.53634514 -740.57543945 710.62475586 C-740.57314784 696.07643637 -740.5708725 681.52811687 -740.56866455 666.97979736 C-740.5685276 666.07753656 -740.56839065 665.17527576 -740.56824955 664.24567372 C-740.56190809 622.3193526 -740.55818073 580.39303136 -740.55512976 538.46670988 C-740.55493169 535.74556863 -740.5547325 533.02442738 -740.55453308 530.30328614 C-740.55321332 512.27047905 -740.55193867 494.23767196 -740.55069422 476.20486487 C-740.54821757 440.3225784 -740.54547588 404.44029195 -740.54255217 368.55800552 C-740.54241293 366.84911126 -740.54227388 365.140217 -740.54213501 363.43132274 C-740.53785568 310.783637 -740.53237992 258.13595148 -740.52565002 205.48826599 C-740.52537919 203.36420983 -740.52510836 201.24015366 -740.52483763 199.1160975 C-740.51728615 140.16073157 -740.50848021 81.2053658 -740.5 22.25 C-627.31 22.25 -514.12 22.25 -397.5 22.25 C-397.17 78.68 -396.84 135.11 -396.5 193.25 C-389.57 184.34 -389.57 184.34 -382.5 175.25 C-378.87300217 170.86571691 -375.24455967 166.52869356 -371.5 162.25 C-370.33597656 160.91775391 -370.33597656 160.91775391 -369.1484375 159.55859375 C-362.77798447 152.44997711 -356.04948582 145.69594785 -349.3125 138.9375 C-348.83896088 138.46128204 -348.36542175 137.98506409 -347.87753296 137.49441528 C-342.26183968 131.85465631 -336.56707305 126.40103612 -330.5 121.25 C-329.47862877 120.3612949 -328.45776113 119.47201056 -327.4375 118.58203125 C-303.17104181 97.76838028 -276.36890381 79.84830474 -248.5 64.25 C-247.53980957 63.70972168 -246.57961914 63.16944336 -245.59033203 62.61279297 C-169.49434313 20.01022798 -86.7338013 0.01677278 0 0 Z " fill="#FEFEFE" transform="translate(2944.5,2185.75)"/>
<path d="M0 0 C123.09 0 246.18 0 373 0 C373.02014604 140.05744354 373.02014604 140.05744354 373.02508167 178.78069295 C373.0253696 181.03898452 373.02565757 183.2972761 373.02594624 185.55556768 C373.03268588 238.28456801 373.03805826 291.01356838 373.04234314 343.74256897 C373.04248259 345.45405025 373.04262204 347.16553153 373.04276149 348.87701281 C373.04568397 384.79877597 373.04840071 420.72053914 373.05087968 456.64230233 C373.05212511 474.68608365 373.05341008 492.72986497 373.05473244 510.77364628 C373.05493169 513.49554021 373.05512981 516.21743414 373.05532788 518.93932807 C373.05838909 560.86948472 373.0623002 602.79964108 373.06866455 644.72979736 C373.06880145 645.63183361 373.06893835 646.53386985 373.0690794 647.46324053 C373.07129186 662.00741131 373.07357543 676.55158207 373.07586844 691.09575284 C373.0824692 732.97016684 373.0885471 774.84458062 373.09113979 816.71899509 C373.0912201 818.00974317 373.0912201 818.00974317 373.09130202 819.32656696 C373.09246759 838.21328731 373.09336253 857.10000767 373.09400098 875.98672806 C373.09426262 883.58526888 373.09456324 891.18380971 373.09487724 898.78235054 C373.09491067 899.61399525 373.0949441 900.44563996 373.09497854 901.30248602 C373.09607628 928.13051574 373.10035174 954.95854381 373.10628221 981.78657286 C373.11223817 1008.79535934 373.11510168 1035.80414422 373.11362399 1062.81293138 C373.11342089 1066.53940667 373.11325351 1070.26588196 373.11310768 1073.99235725 C373.1130778 1074.7228969 373.11304792 1075.45343654 373.11301713 1076.20611375 C373.11263546 1087.80604334 373.1156299 1099.40596954 373.12000986 1111.0058982 C373.12424085 1122.39302299 373.12486662 1133.78014215 373.12183181 1145.16726778 C373.12031131 1151.26665513 373.12043025 1157.36603109 373.12488318 1163.46541726 C373.12889416 1169.00105233 373.12840492 1174.536667 373.12413998 1180.07230172 C373.1234187 1182.07506124 373.12441696 1184.07782221 373.12723524 1186.08057988 C373.13079208 1188.77659304 373.12832029 1191.47253168 373.1241985 1194.16854233 C373.12670737 1194.95845589 373.12921625 1195.74836946 373.13180115 1196.5622198 C373.11415501 1201.88584499 373.11415501 1201.88584499 372 1203 C370.03059099 1203.0986701 368.05758018 1203.12555685 366.08570099 1203.12584114 C364.79198688 1203.12844889 363.49827277 1203.13105664 362.16535521 1203.13374341 C360.71086329 1203.13158087 359.25637152 1203.1293242 357.80187988 1203.12698364 C356.27142821 1203.12813447 354.74097681 1203.12972173 353.21052599 1203.13171089 C348.98472464 1203.13590948 344.7589457 1203.13381115 340.53314424 1203.13072467 C335.98367802 1203.12847293 331.4342158 1203.13194905 326.88475037 1203.13470459 C317.96435529 1203.13916372 309.0439686 1203.13818519 300.12357318 1203.13529195 C292.877227 1203.13303847 285.63088318 1203.13272515 278.38453674 1203.13381577 C277.35530194 1203.133969 276.32606713 1203.13412223 275.26564339 1203.13428011 C273.17512365 1203.13459982 271.08460391 1203.13492403 268.99408418 1203.1352527 C249.36656229 1203.13810791 229.73904505 1203.13481983 210.11152393 1203.12945233 C193.25061648 1203.12498426 176.38971592 1203.12576018 159.52880859 1203.13037109 C139.97408608 1203.13571614 120.41936767 1203.13783321 100.86464453 1203.13475883 C98.7815841 1203.13444026 96.69852368 1203.13412589 94.61546326 1203.13381577 C93.59041405 1203.13366149 92.56536484 1203.13350721 91.50925353 1203.13334826 C84.26711875 1203.1324829 77.02498655 1203.13394641 69.78285217 1203.13629532 C60.96356335 1203.13909274 52.14428343 1203.13835629 43.32499564 1203.13301457 C38.82066712 1203.13037677 34.31635349 1203.12937382 29.81202507 1203.13266373 C25.69542805 1203.13562509 21.57885981 1203.13403658 17.46226543 1203.12868617 C15.9663254 1203.1275613 14.47038297 1203.12815471 12.97444445 1203.13056196 C10.95439759 1203.13356536 8.934344 1203.12991296 6.91429901 1203.12584114 C5.78821086 1203.12567879 4.66212272 1203.12551644 3.50191069 1203.12534916 C1 1203 1 1203 0 1202 C-0.09934603 1199.38090603 -0.13251877 1196.78815855 -0.1241985 1194.16854233 C-0.12547658 1193.3325626 -0.12675467 1192.49658287 -0.12807148 1191.63527042 C-0.13117069 1188.79178595 -0.12704918 1185.94835545 -0.12304783 1183.1048727 C-0.12378651 1181.05378259 -0.12496406 1179.0026926 -0.12654433 1176.95160297 C-0.12963497 1171.26133127 -0.12642045 1165.57107722 -0.12226619 1159.88080683 C-0.11885027 1153.71072332 -0.12119928 1147.54064171 -0.12284368 1141.37055784 C-0.12492382 1130.53888573 -0.12329535 1119.70722048 -0.11920547 1108.87554932 C-0.1148343 1097.24781804 -0.11263208 1085.62008938 -0.11310768 1073.99235725 C-0.11313637 1073.25917967 -0.11316507 1072.52600209 -0.11319463 1071.77060701 C-0.11335099 1068.03243192 -0.11354294 1064.29425684 -0.11374746 1060.55608176 C-0.11515666 1033.46697704 -0.11171824 1006.37787467 -0.10573006 979.28877068 C-0.09981209 952.45329718 -0.09595587 925.61782468 -0.09487724 898.78235054 C-0.09484283 897.94963107 -0.09480842 897.1169116 -0.09477296 896.2589582 C-0.09445978 888.65359803 -0.09417208 881.04823786 -0.09391499 873.44287768 C-0.09327551 854.5349168 -0.09231613 835.62695595 -0.09113979 816.71899509 C-0.09108648 815.85786963 -0.09103316 814.99674416 -0.09097823 814.10952399 C-0.08835529 772.19793423 -0.08204716 730.28634514 -0.07543945 688.37475586 C-0.07314784 673.82643637 -0.0708725 659.27811687 -0.06866455 644.72979736 C-0.0685276 643.82753656 -0.06839065 642.92527576 -0.06824955 641.99567372 C-0.06190809 600.0693526 -0.05818073 558.14303136 -0.05512976 516.21670988 C-0.05493169 513.49556863 -0.0547325 510.77442738 -0.05453308 508.05328614 C-0.05321332 490.02047905 -0.05193867 471.98767196 -0.05069422 453.95486487 C-0.04821757 418.0725784 -0.04547588 382.19029195 -0.04255217 346.30800552 C-0.04241293 344.59911126 -0.04227388 342.890217 -0.04213501 341.18132274 C-0.03785568 288.533637 -0.03237992 235.88595148 -0.02565002 183.23826599 C-0.02537919 181.11420983 -0.02510836 178.99015366 -0.02483763 176.8660975 C-0.01728615 117.91073157 -0.00848021 58.9553658 0 0 Z " fill="#FEFEFE" transform="translate(1625,2208)"/>
<path d="M0 0 C0.82880676 -0.00970322 1.65761353 -0.01940643 2.51153564 -0.02940369 C5.18742766 -0.05426834 7.86306655 -0.06692672 10.5390625 -0.07421875 C11.4529071 -0.07683716 12.36675171 -0.07945557 13.30828857 -0.08215332 C28.58863348 -0.08683839 43.19523134 0.93205184 58.1640625 4.23828125 C58.91703613 4.40376465 59.67000977 4.56924805 60.44580078 4.73974609 C64.7483282 5.72246539 68.95563892 6.91340716 73.1640625 8.23828125 C75.05125 8.82609375 75.05125 8.82609375 76.9765625 9.42578125 C129.52524145 26.17017335 174.56003979 63.83430824 200.4921875 112.51953125 C202.48320493 116.3799031 204.34997551 120.29212075 206.1640625 124.23828125 C206.69515625 125.38425781 207.22625 126.53023437 207.7734375 127.7109375 C215.17772322 144.33241394 219.83631548 161.37948305 223.1640625 179.23828125 C223.29828613 179.94146484 223.43250977 180.64464844 223.57080078 181.36914062 C227.73263943 204.33827542 226.43255091 230.41934696 222.1640625 253.23828125 C221.95523438 254.36194092 221.95523438 254.36194092 221.7421875 255.50830078 C211.83341611 306.50865536 181.78204316 353.35147204 140.1640625 384.23828125 C139.59574707 384.66737793 139.02743164 385.09647461 138.44189453 385.53857422 C93.5821411 419.34017445 36.530591 432.42086969 -18.8359375 425.23828125 C-57.05275368 419.52065508 -93.05928384 403.86408345 -122.8359375 379.23828125 C-123.42246094 378.75327148 -124.00898437 378.26826172 -124.61328125 377.76855469 C-134.49676063 369.54102825 -143.51851549 361.13168871 -151.56640625 351.0546875 C-152.99303343 349.28429473 -154.45023477 347.53768714 -155.94921875 345.828125 C-190.70698828 305.73278208 -204.89252915 249.06991689 -201.63378906 197.00878906 C-197.75119339 149.93414794 -179.06606547 105.36194374 -146.98828125 70.578125 C-144.86877136 68.27397541 -142.82158408 65.91832691 -140.7734375 63.55078125 C-137.07283755 59.39215027 -133.10303407 55.80168119 -128.8359375 52.23828125 C-127.99804688 51.5009375 -127.16015625 50.76359375 -126.296875 50.00390625 C-92.14213818 20.45958845 -45.51342099 0.4455764 0 0 Z " fill="#FEFEFE" transform="translate(1799.8359375,1602.76171875)"/>
</svg>
