<?xml version="1.0" encoding="UTF-8"?>
<svg version="1.1" xmlns="http://www.w3.org/2000/svg" width="1000" height="280">
<path d="M0 0 C80.19 0 160.38 0 243 0 C247.5199241 15.81973435 247.5199241 15.81973435 248.25 21.9375 C248.39953125 23.12214844 248.5490625 24.30679688 248.703125 25.52734375 C249.00317678 29.03715992 249.01989839 32.47929349 249 36 C239.88143671 36.2555115 230.76411499 36.4506301 221.64274597 36.56993389 C217.40653575 36.62721341 213.17278353 36.70480835 208.93798828 36.82983398 C204.84639612 36.94986784 200.75715795 37.01522419 196.66394043 37.04364967 C195.10716685 37.06388796 193.55051437 37.10341664 191.99475098 37.16303062 C179.84443346 37.60984731 179.84443346 37.60984731 175.34753418 33.68489075 C173.27989385 30.8810474 171.60847562 28.08621516 170 25 C169.27619141 23.92145752 168.55238281 22.84291504 167.80664062 21.73168945 C167.26201172 20.86761475 166.71738281 20.00354004 166.15625 19.11328125 C165.24746094 17.67758789 165.24746094 17.67758789 164.3203125 16.21289062 C163.41925781 14.77719727 163.41925781 14.77719727 162.5 13.3125 C161.86835938 12.31283203 161.23671875 11.31316406 160.5859375 10.28320312 C159.05394601 7.85754992 157.52535545 5.42982949 156 3 C152.52841411 6.34768173 150.0414153 9.88795882 147.5625 14 C146.68391706 15.43068693 145.80362263 16.86032384 144.921875 18.2890625 C144.21901367 19.42843262 144.21901367 19.42843262 143.50195312 20.59082031 C136.6481978 31.58445775 129.59678684 42.50262182 122 53 C116.44000054 48.43103583 111.55583075 43.47994853 106.6875 38.1875 C105.27731092 36.65778182 103.86467257 35.13031674 102.44921875 33.60546875 C101.83393311 32.93668701 101.21864746 32.26790527 100.5847168 31.57885742 C99.06945981 29.90370068 99.06945981 29.90370068 97 29 C96.37035843 30.13860977 95.74071686 31.27721954 95.09199524 32.45033264 C93.50194041 34.65519071 92.60006352 35.80732037 89.98912621 36.64568901 C87.47872279 36.86227261 85.04703921 36.86598408 82.52807617 36.79467773 C81.58124969 36.79569992 80.63442322 36.79672211 79.65890503 36.79777527 C76.53577552 36.79290632 73.41558605 36.73849705 70.29296875 36.68359375 C68.1253672 36.67053511 65.95774496 36.6605722 63.79011536 36.65357971 C58.08988217 36.62687544 52.39090115 36.55813081 46.69116211 36.48065186 C40.87305643 36.40899482 35.05474805 36.37706284 29.23632812 36.34179688 C17.82366913 36.26676365 6.41193876 36.14731948 -5 36 C-5.02282686 33.77958941 -5.0390335 31.55911019 -5.05249023 29.33862305 C-5.06223373 28.10210495 -5.07197723 26.86558685 -5.08201599 25.59159851 C-4.97319772 20.82628933 -4.17209093 16.43131622 -3.0625 11.8125 C-2.88009766 10.99458984 -2.69769531 10.17667969 -2.50976562 9.33398438 C-1.79209636 6.15797169 -1.03056392 3.09169175 0 0 Z " fill="#3A7441" transform="translate(14,94)"/>
<path d="M0 0 C1.82940667 -0.01272447 3.65878171 -0.03102102 5.48808289 -0.0544281 C10.42925334 -0.10065748 15.3667341 -0.06572469 20.30771685 -0.01291537 C25.49117586 0.03135567 30.67442559 0.00941746 35.85800171 -0.00270081 C44.55876575 -0.01260823 53.2580701 0.03006016 61.95849609 0.10449219 C72.00391102 0.18981261 82.04681648 0.19322051 92.09245455 0.15250069 C101.77676594 0.11502532 111.46016854 0.13422229 121.14442062 0.17954826 C125.25685663 0.1978919 129.36859948 0.19678267 133.48103714 0.17987251 C138.32652394 0.16261136 143.16923475 0.19520207 148.01421547 0.26563072 C149.78739184 0.2835803 151.56083335 0.28474543 153.3340168 0.26750946 C166.68368881 0.15350427 166.68368881 0.15350427 171.74160385 3.81770134 C174.03225693 6.31720479 175.90709139 8.78069105 177.72802734 11.63452148 C178.20434412 12.29135201 178.6806609 12.94818254 179.17141151 13.62491703 C180.36200947 15.29016285 181.45521118 17.02382105 182.54052734 18.75952148 C182.91234131 19.3528125 183.28415527 19.94610352 183.66723633 20.55737305 C190.72802734 31.95548488 190.72802734 31.95548488 190.72802734 35.63452148 C114.49802734 35.63452148 38.26802734 35.63452148 -40.27197266 35.63452148 C-38.66252924 30.80619124 -36.90755308 26.87267634 -34.33447266 22.57202148 C-34.00640625 21.99258789 -33.67833984 21.4131543 -33.34033203 20.81616211 C-32.07312467 18.68607915 -30.67798894 16.67652365 -29.27197266 14.63452148 C-28.5940951 13.57518874 -27.91621754 12.515856 -27.21779823 11.42442226 C-19.65433802 0.50591779 -12.71366195 -0.242008 0 0 Z " fill="#A4C9E9" transform="translate(60.27197265625,44.365478515625)"/>
<path d="M0 0 C1.03353607 -0.00953201 1.03353607 -0.00953201 2.08795166 -0.01925659 C31.94902184 -0.19046303 61.80109745 11.01296882 84.0546875 31.125 C85.3125 32.4375 85.3125 32.4375 85.3125 33.4375 C28.8825 33.4375 -27.5475 33.4375 -85.6875 33.4375 C-71.35675603 19.10675603 -54.93372625 10.39798107 -35.6875 4.4375 C-34.97384277 4.2115918 -34.26018555 3.98568359 -33.52490234 3.75292969 C-22.50513877 0.42784691 -11.4275023 0.05376553 0 0 Z " fill="#B6A771" transform="translate(135.6875,5.5625)"/>
<path d="M0 0 C0.495 0.99 0.495 0.99 1 2 C-0.14350637 4.8002868 -1.35692399 7.48758306 -2.671875 10.20703125 C-3.06579941 11.03634659 -3.45972382 11.86566193 -3.86558533 12.72010803 C-5.1521559 15.42159283 -6.45069234 18.11712107 -7.75 20.8125 C-8.62763725 22.64781668 -9.50499755 24.48326582 -10.38208008 26.31884766 C-15.39941401 36.78478693 -20.50970321 47.18555118 -26.05175781 57.38598633 C-28.21988558 60.98473283 -28.21988558 60.98473283 -29 65 C-28.071875 65.598125 -27.14375 66.19625 -26.1875 66.8125 C-22.80027936 69.13706319 -21.71660177 70.33658165 -20 74 C-18.29497421 85.74985166 -20.09245071 95.16466376 -27 105 C-29.75964635 108.06519595 -32.67270102 110.57323537 -36 113 C-36.70253906 113.52464844 -37.40507812 114.04929687 -38.12890625 114.58984375 C-39.73032177 115.75774476 -41.36163849 116.88451983 -43 118 C-40.9896084 120.0103916 -39.68600059 120.64828654 -37.125 121.75 C-33.01310068 123.78352112 -30.96734306 125.73742338 -29 130 C-27.67046912 137.7112791 -30.99229405 143.52223854 -35 150 C-37.15651724 152.87535632 -39.39551905 155.62051655 -41.75390625 158.33203125 C-43.95136716 160.73287884 -43.95136716 160.73287884 -44.88833618 162.76776123 C-46.05990789 164.9492294 -47.10519158 166.39056262 -49 168 C-53.02663314 168.9927784 -56.9564665 168.81509089 -61.08203125 168.68359375 C-62.25134689 168.67368912 -63.42066254 168.66378448 -64.62541199 168.65357971 C-68.3557236 168.61443232 -72.08307968 168.52659878 -75.8125 168.4375 C-78.34305643 168.40238709 -80.87365904 168.37044808 -83.40429688 168.34179688 C-89.60387091 168.26466872 -95.80172433 168.1475723 -102 168 C-99.65958192 165.62906358 -97.44982833 163.46933864 -94.671875 161.625 C-94.04442383 161.20307373 -93.41697266 160.78114746 -92.77050781 160.34643555 C-92.10374023 159.90211182 -91.43697266 159.45778809 -90.75 159 C-84.84601136 154.99078936 -78.99990293 150.9152914 -73.25 146.6875 C-72.58323242 146.20861328 -71.91646484 145.72972656 -71.22949219 145.23632812 C-66.20407144 141.50404338 -62.45376712 137.87385845 -61.4375 131.4375 C-61.67831192 127.83097416 -61.67831192 127.83097416 -64.5 125.5625 C-67.04070791 122.95827439 -67.46616238 122.46855139 -67.75 119.0625 C-67.46643216 115.52779396 -66.9320752 114.92213499 -64.4375 112.0625 C-60.06126457 108.78032343 -55.25283637 106.04692506 -50.50756836 103.33422852 C-42.43651014 98.67877278 -37.265051 93.96181364 -34 85 C-33.1348991 81.70001246 -33.22985302 80.49528243 -34 77 C-36.00179288 75.44980464 -37.928479 74.4060421 -40.25 73.3984375 C-42 72 -42 72 -42.625 69.49609375 C-41.67122513 64.16091558 -38.88772823 60.21520586 -36 55.6875 C-35.37569092 54.68638184 -34.75138184 53.68526367 -34.1081543 52.65380859 C-32.08776787 49.42569395 -30.04634573 46.21171252 -28 43 C-26.98220459 41.39487549 -26.98220459 41.39487549 -25.94384766 39.75732422 C-21.32884701 32.48350262 -16.67149174 25.23762597 -12 18 C-10.85916194 16.22669955 -9.71852449 14.45327002 -8.578125 12.6796875 C-7.57319479 11.11961248 -6.56800568 9.55970418 -5.5625 8 C-5.10786377 7.29375488 -4.65322754 6.58750977 -4.18481445 5.85986328 C-1.11720436 1.11720436 -1.11720436 1.11720436 0 0 Z " fill="#040707" transform="translate(169,106)"/>
<path d="M0 0 C28.05 0 56.1 0 85 0 C83.50618569 3.73453577 82.4729737 6.00558942 80.20703125 9.109375 C79.38948364 10.23593506 79.38948364 10.23593506 78.55541992 11.38525391 C77.69267456 12.55580322 77.69267456 12.55580322 76.8125 13.75 C75.93718628 14.94955322 75.93718628 14.94955322 75.04418945 16.17333984 C71.12620462 21.5241223 67.15631862 26.83105103 63 32 C61.8944811 31.06409496 60.79064547 30.12620142 59.6875 29.1875 C59.07261719 28.66542969 58.45773438 28.14335937 57.82421875 27.60546875 C56.14520818 26.12779563 54.57301228 24.58852905 53 23 C52.64873047 23.64316162 52.29746094 24.28632324 51.93554688 24.94897461 C49.54329329 28.45468753 47.30538063 31.43303721 43.00537109 32.49053955 C37.18343583 33.14938282 31.33904081 32.818025 25.5 32.5625 C23.70582956 32.51730557 21.91154982 32.47624965 20.1171875 32.43945312 C15.74207323 32.34076692 11.37224684 32.18577603 7 32 C4.53450908 25.59949086 2.39382394 19.3937464 1.25 12.625 C1.12496094 11.95339844 0.99992188 11.28179687 0.87109375 10.58984375 C0.22026905 6.94951659 0 3.73163622 0 0 Z " fill="#2462A0" transform="translate(9,145)"/>
<path d="M0 0 C19.8 0 39.6 0 60 0 C58.87051793 14.68326693 58.87051793 14.68326693 57.0625 21.0625 C56.72347656 22.29097656 56.38445312 23.51945312 56.03515625 24.78515625 C55.19591724 27.39154761 54.25384964 29.58819682 53 32 C48.58965677 32.27392246 44.18391784 32.47235258 39.76757812 32.60424805 C38.26930486 32.65925571 36.77161395 32.73410328 35.27539062 32.82983398 C22.93503377 33.59904956 22.93503377 33.59904956 18.4296875 29.87597656 C16.33150199 27.01932534 14.66111888 24.12891789 13 21 C11.80810548 19.18441363 10.60016324 17.37924211 9.375 15.5859375 C8.24688746 13.85097821 7.12185776 12.11401029 6 10.375 C5.41605469 9.47910156 4.83210937 8.58320313 4.23046875 7.66015625 C0 1.13116584 0 1.13116584 0 0 Z " fill="#13488C" transform="translate(202,145)"/>
<path d="M0 0 C1.7590332 0.05859375 1.7590332 0.05859375 4 1 C5.47796347 3.352329 6.67766732 5.56511953 7.85546875 8.0625 C8.20257401 8.76898682 8.54967926 9.47547363 8.90730286 10.20336914 C10.01405288 12.46268552 11.10115994 14.73080967 12.1875 17 C13.28862678 19.26701161 14.39362091 21.53209657 15.49983215 23.79663086 C16.18704428 25.2070226 16.8704827 26.61926029 17.54985046 28.03344727 C18.94670427 31.23375275 18.94670427 31.23375275 21 34 C21.36762451 33.46109131 21.73524902 32.92218262 22.11401367 32.36694336 C23.804396 29.88992907 25.49594004 27.41371021 27.1875 24.9375 C27.76564453 24.08994141 28.34378906 23.24238281 28.93945312 22.36914062 C32.23996345 17.53958032 35.58049511 12.74609248 39 8 C33.72 7.67 28.44 7.34 23 7 C23 4.69 23 2.38 23 0 C33.23 0 43.46 0 54 0 C52.47513011 3.81217472 51.40447546 6.09015048 49.06640625 9.25 C48.49986328 10.0234375 47.93332031 10.796875 47.34960938 11.59375 C46.46499023 12.78484375 46.46499023 12.78484375 45.5625 14 C44.39528416 15.5819691 43.22986523 17.16526587 42.06640625 18.75 C41.55021729 19.44609375 41.03402832 20.1421875 40.50219727 20.859375 C38.88586285 23.16264497 37.44769904 25.58716826 36 28 C41.61 28.33 47.22 28.66 53 29 C53 31.31 53 33.62 53 36 C39.47 36 25.94 36 12 36 C11.34 34.68 10.68 33.36 10 32 C4.39 31.67 -1.22 31.34 -7 31 C-7.99 33.475 -7.99 33.475 -9 36 C-11.64 36 -14.28 36 -17 36 C-15.58503846 31.3843831 -13.70520721 27.14423157 -11.5234375 22.8515625 C-11.19332672 22.19417084 -10.86321594 21.53677917 -10.52310181 20.85946655 C-9.47750603 18.77938683 -8.4263553 16.70217356 -7.375 14.625 C-6.6610881 13.20721762 -5.9475427 11.78925062 -5.234375 10.37109375 C-3.49381428 6.91191323 -1.74826918 3.45529063 0 0 Z M1 15 C0.01 17.97 -0.98 20.94 -2 24 C0.64 24 3.28 24 6 24 C4.68 21.03 3.36 18.06 2 15 C1.67 15 1.34 15 1 15 Z " fill="#3E3F3E" transform="translate(797,154)"/>
<path d="M0 0 C4.5478125 -0.12375 4.5478125 -0.12375 9.1875 -0.25 C10.60712036 -0.30462402 10.60712036 -0.30462402 12.05541992 -0.36035156 C16.21574001 -0.41511005 18.4337676 -0.35090458 22.05078125 1.890625 C25.47676778 5.59810541 25.32202193 8.55995507 25.30078125 13.4453125 C24.85478747 17.23336355 23.42806933 19.11666767 21 22 C23.475 25.465 23.475 25.465 26 29 C28.43349672 25.95734003 30.19203922 22.84835081 31.91796875 19.359375 C32.71557617 17.75449219 32.71557617 17.75449219 33.52929688 16.1171875 C34.07650391 15.00601563 34.62371094 13.89484375 35.1875 12.75 C36.02571289 11.06003906 36.02571289 11.06003906 36.88085938 9.3359375 C38.25753128 6.55906084 39.63042928 3.78038402 41 1 C42.32 1 43.64 1 45 1 C45.27674561 1.55872803 45.55349121 2.11745605 45.83862305 2.69311523 C47.11937568 5.27567762 48.4034201 7.85659046 49.6875 10.4375 C50.12255859 11.31599609 50.55761719 12.19449219 51.00585938 13.09960938 C53.55954406 18.22589493 56.21727135 23.25364245 59.09301758 28.20727539 C60 30 60 30 60 32 C57.36 32 54.72 32 52 32 C51.81695313 31.35546875 51.63390625 30.7109375 51.4453125 30.046875 C50.09188105 27.62555056 50.09188105 27.62555056 46.7421875 27.390625 C45.46601562 27.34421875 44.18984375 27.2978125 42.875 27.25 C41.59367188 27.19328125 40.31234375 27.1365625 38.9921875 27.078125 C38.00476563 27.05234375 37.01734375 27.0265625 36 27 C35.34 28.65 34.68 30.3 34 32 C28.87220236 32.53455805 24.11150682 32.80180499 19 32 C16.44086855 29.88209811 15.09433342 27.95841541 13.4921875 25.06640625 C12.13521397 22.74214688 12.13521397 22.74214688 9.3203125 22.21484375 C8.55460938 22.14394531 7.78890625 22.07304688 7 22 C7 25.3 7 28.6 7 32 C4.69 32 2.38 32 0 32 C0 21.44 0 10.88 0 0 Z M7 6 C7 9.3 7 12.6 7 16 C8.8871875 16.061875 8.8871875 16.061875 10.8125 16.125 C11.52019531 16.14820313 12.22789062 16.17140625 12.95703125 16.1953125 C15.31359719 16.13254462 15.31359719 16.13254462 18 14 C19.00478037 12.1477633 19.00478037 12.1477633 19 10 C18.26929996 7.57817235 18.26929996 7.57817235 16 6 C12.92101234 5.65122972 10.11594876 5.81936529 7 6 Z M43 14 C40.74114676 17.25397508 40.74114676 17.25397508 40 21 C41.98 21 43.96 21 46 21 C45.42547254 17.06924356 45.42547254 17.06924356 43 14 Z " fill="#3E3F3E" transform="translate(538,103)"/>
<path d="M0 0 C2.64 0 5.28 0 8 0 C8 9.9 8 19.8 8 30 C14.27 30 20.54 30 27 30 C27.33 30.66 27.66 31.32 28 32 C29.95757192 28.22822332 31.91475448 24.45624493 33.87158203 20.68408203 C34.53684049 19.4018004 35.20220389 18.11957322 35.86767578 16.83740234 C36.82612496 14.9907043 37.78419218 13.14380852 38.7421875 11.296875 C39.3182373 10.18666992 39.89428711 9.07646484 40.48779297 7.93261719 C41.67540009 5.62949534 42.84908399 3.32159024 44 1 C44.99 1 45.98 1 47 1 C49.56605232 5.96490176 52.12947613 10.93114795 54.69042969 15.89868164 C55.56274722 17.58981326 56.43579303 19.28056941 57.30957031 20.97094727 C58.5624466 23.39502139 59.81273223 25.82041585 61.0625 28.24609375 C61.45622803 29.00651474 61.84995605 29.76693573 62.25561523 30.55039978 C65 35.88612829 65 35.88612829 65 37 C62.03 37 59.06 37 56 37 C55.34 35.35 54.68 33.7 54 32 C48.39 32 42.78 32 37 32 C36.34 33.65 35.68 35.3 35 37 C23.45 37 11.9 37 0 37 C0 24.79 0 12.58 0 0 Z M45 16 C42.64089647 20.2637281 42.64089647 20.2637281 42 25 C44.64 25 47.28 25 50 25 C48.68 22.03 47.36 19.06 46 16 C45.67 16 45.34 16 45 16 Z " fill="#3E3F3E" transform="translate(320,153)"/>
<path d="M0 0 C3.74280583 2.23471557 5.82436375 3.9582434 7.5703125 8.0234375 C5.5903125 9.3434375 3.6103125 10.6634375 1.5703125 12.0234375 C0.8896875 11.3840625 0.2090625 10.7446875 -0.4921875 10.0859375 C-4.02797038 7.60336654 -6.11682072 7.0234375 -10.4296875 7.0234375 C-13.59452286 8.63571212 -15.70077475 10.02946556 -17.8046875 12.8984375 C-18.66824288 15.83452578 -18.79626959 17.96858676 -18.4296875 21.0234375 C-16.1538052 25.24825496 -16.1538052 25.24825496 -12.4296875 28.0234375 C-6.55515557 28.57261627 -6.55515557 28.57261627 -1.4296875 26.0234375 C-0.7696875 25.3634375 -0.1096875 24.7034375 0.5703125 24.0234375 C-3.3896875 23.6934375 -7.3496875 23.3634375 -11.4296875 23.0234375 C-11.4296875 20.7134375 -11.4296875 18.4034375 -11.4296875 16.0234375 C-4.1696875 16.0234375 3.0903125 16.0234375 10.5703125 16.0234375 C9.35106616 28.21590091 9.35106616 28.21590091 4.5703125 33.0234375 C-0.66346267 36.85302909 -5.98881351 37.85338678 -12.4296875 37.0234375 C-18.31756149 35.12587222 -21.9833965 32.09151251 -25.4296875 27.0234375 C-27.63812353 22.08074733 -28.48232722 17.26960191 -26.77734375 12.01171875 C-24.46587012 6.80346272 -21.15536569 3.19216371 -16.4296875 0.0234375 C-11.14005363 -1.73977379 -5.23971236 -2.10599371 0 0 Z " fill="#3E3F3E" transform="translate(655.4296875,153.9765625)"/>
<path d="M0 0 C1.98 0 3.96 0 6 0 C6 8.25 6 16.5 6 25 C11.54973121 24.96042519 11.54973121 24.96042519 17.09936523 24.90991211 C19.06645974 24.90276909 21.03353621 24.94968107 23 25 C23.33 25.33 23.66 25.66 24 26 C28.29 17.75 32.58 9.5 37 1 C38.32 1 39.64 1 41 1 C43.0014967 4.92884981 44.99508916 8.86157793 46.98144531 12.7980957 C47.65831981 14.13675617 48.33734421 15.47433181 49.01855469 16.81079102 C49.9972111 18.73172521 50.96807558 20.65642496 51.9375 22.58203125 C52.81728516 24.31803589 52.81728516 24.31803589 53.71484375 26.08911133 C55 29 55 29 55 32 C52.69 32 50.38 32 48 32 C47.34 30.35 46.68 28.7 46 27 C43.70759993 27.05985379 41.41593794 27.14859027 39.125 27.25 C37.84882813 27.29640625 36.57265625 27.3428125 35.2578125 27.390625 C34.18273437 27.59171875 33.10765625 27.7928125 32 28 C31.34 29.32 30.68 30.64 30 32 C20.1 32 10.2 32 0 32 C0 21.44 0 10.88 0 0 Z M38 14 C36.515 17.465 36.515 17.465 35 21 C37.31 21 39.62 21 42 21 C41.39816251 18.97954558 40.72693904 16.97888961 40 15 C39.34 14.67 38.68 14.34 38 14 Z " fill="#3E3F3E" transform="translate(415,103)"/>
<path d="M0 0 C22.90625 0 22.90625 0 28.0625 5 C29.52374029 9.67596891 29.6757722 14.15333272 29 19 C27.125 22.1875 27.125 22.1875 25 24 C24.34 24 23.68 24 23 24 C23.5775 24.85464844 24.155 25.70929688 24.75 26.58984375 C25.50012058 27.70564811 26.25011404 28.82153795 27 29.9375 C27.3815625 30.50146484 27.763125 31.06542969 28.15625 31.64648438 C31 35.88671875 31 35.88671875 31 37 C27.49114813 37.63540577 24.48185421 37.86154226 21 37 C18.78158487 34.58343517 17.30974821 32.17429205 15.765625 29.28515625 C14.12955039 26.68291983 14.12955039 26.68291983 10.796875 26.18359375 C9.87390625 26.12300781 8.9509375 26.06242187 8 26 C8 29.63 8 33.26 8 37 C5.36 37 2.72 37 0 37 C0 24.79 0 12.58 0 0 Z M8 8 C8 11.63 8 15.26 8 19 C9.588125 19.04125 11.17625 19.0825 12.8125 19.125 C13.70582031 19.14820313 14.59914063 19.17140625 15.51953125 19.1953125 C18.25402714 19.18285827 18.25402714 19.18285827 21 17 C22.00635246 14.63537508 22.00635246 14.63537508 22 12 C20.94589017 9.75013444 20.94589017 9.75013444 19 8 C16.2613775 7.51659568 16.2613775 7.51659568 13.3125 7.75 C11.559375 7.8325 9.80625 7.915 8 8 Z " fill="#3E3F3E" transform="translate(890,153)"/>
<path d="M0 0 C22.47989276 0 22.47989276 0 29.58984375 6.26953125 C33.46670628 11.02701075 33.42485071 16.16976817 33.31640625 22.0546875 C32.72673688 27.54370853 30.494351 30.61499175 26.4375 34.375 C22.89893259 36.73404494 20.26475101 37.12281667 16.11328125 37.09765625 C15.26805908 37.09515869 14.42283691 37.09266113 13.55200195 37.09008789 C12.48296631 37.08098389 11.41393066 37.07187988 10.3125 37.0625 C5.2078125 37.0315625 5.2078125 37.0315625 0 37 C0 24.79 0 12.58 0 0 Z M8 8 C8 15.26 8 22.52 8 30 C18.03532046 30.94324222 18.03532046 30.94324222 22.125 28.125 C24.88996893 24.99136854 25.15708216 23.22532433 25.1875 19.125 C25.20876953 17.82949219 25.20876953 17.82949219 25.23046875 16.5078125 C24.98243618 13.80888187 24.47382301 12.26214694 23 10 C18.25368713 6.83579142 13.63243123 7.87887245 8 8 Z " fill="#3E3F3E" transform="translate(426,153)"/>
<path d="M0 0 C21.7136102 0 21.7136102 0 27.375 4.1875 C31.40354554 8.50379879 33.13270484 12.57193791 33.375 18.4375 C33.14387011 24.32628754 31.84324622 29.15675378 27.625 33.375 C21.55886746 37.1302249 16.66557527 37.25223235 9.6875 37.125 C4.8921875 37.063125 4.8921875 37.063125 0 37 C0 24.79 0 12.58 0 0 Z M8 8 C8 15.26 8 22.52 8 30 C16.73492352 30.65728154 16.73492352 30.65728154 23 27 C25.35890952 23.96711633 25.35622018 20.7394812 25.2578125 16.96484375 C24.87949755 14.08162525 23.79180855 12.25635151 22 10 C18.07549967 6.98304964 18.07549967 6.98304964 8 8 Z " fill="#3E3F3E" transform="translate(925,153)"/>
<path d="M0 0 C5.20683836 3.75376719 8.64332295 7.47450402 10.25 13.8125 C11.23567653 20.43061384 9.39012486 25.94042281 5.5 31.3125 C1.11759206 35.40274741 -2.97344659 36.69128385 -8.875 37.3125 C-15.59492034 36.57941778 -19.94675537 34.03086874 -24.3125 28.9375 C-28.17385742 23.43997418 -28.09142043 18.46312228 -27.3125 11.9375 C-25.43989935 6.27942707 -21.50177693 2.84011585 -16.4921875 -0.1484375 C-11.35327357 -2.30346592 -5.19306883 -1.66570132 0 0 Z M-16.3125 8.9375 C-19.21538337 12.32419726 -19.89448247 15.47018079 -19.7421875 19.9375 C-18.96645507 23.54818185 -16.92197818 25.39015225 -14.3125 27.9375 C-11.0914689 29.54801555 -7.79560374 29.53918779 -4.3125 28.9375 C-1.14842255 26.46126548 1.53763787 23.84703124 2.6875 19.9375 C2.49532148 14.65259072 1.43417267 11.68417267 -2.3125 7.9375 C-7.35422262 4.62886953 -11.4281039 5.92372368 -16.3125 8.9375 Z " fill="#3E3F3E" transform="translate(729.3125,154.0625)"/>
<path d="M0 0 C20.72727273 0 20.72727273 0 27.375 4.0625 C31.30496419 8.46031707 32.87757982 12.65894938 33.09375 18.55859375 C32.74227126 24.3316321 31.56757376 28.42618748 28 33 C22.15158361 37.23174511 16.4997943 37.51243423 9.5 37.25 C6.365 37.1675 3.23 37.085 0 37 C0 24.79 0 12.58 0 0 Z M8 8 C8 15.26 8 22.52 8 30 C16.71849896 30.68315964 16.71849896 30.68315964 23 27 C25.46185931 23.19530834 25.24130268 19.49975611 24.58203125 15.16015625 C23.57230571 11.41265139 22.2890944 10.03923853 19 8 C15.37 8 11.74 8 8 8 Z " fill="#3E3F3E" transform="translate(544,153)"/>
<path d="M0 0 C9.24 0 18.48 0 28 0 C28 2.64 28 5.28 28 8 C21.4 8 14.8 8 8 8 C8 10.31 8 12.62 8 15 C13.61 15 19.22 15 25 15 C25 17.64 25 20.28 25 23 C19.39 23 13.78 23 8 23 C8 25.31 8 27.62 8 30 C14.6 30 21.2 30 28 30 C28 32.31 28 34.62 28 37 C18.76 37 9.52 37 0 37 C0 24.79 0 12.58 0 0 Z " fill="#3E3F3E" transform="translate(670,153)"/>
<path d="M0 0 C9.24 0 18.48 0 28 0 C28 2.64 28 5.28 28 8 C21.4 8 14.8 8 8 8 C8 10.31 8 12.62 8 15 C13.61 15 19.22 15 25 15 C25 17.64 25 20.28 25 23 C19.39 23 13.78 23 8 23 C8 25.31 8 27.62 8 30 C14.6 30 21.2 30 28 30 C28 32.31 28 34.62 28 37 C18.76 37 9.52 37 0 37 C0 24.79 0 12.58 0 0 Z " fill="#3E3F3E" transform="translate(580,153)"/>
<path d="M0 0 C4.5371643 1.13429108 5.59865413 2.30303986 8.75 5.625 C12.98665215 9.99973563 17.37198422 14.04866538 22 18 C22.33 18.33 22.66 18.66 23 19 C23.33 12.73 23.66 6.46 24 0 C26.64 0 29.28 0 32 0 C32 11.88 32 23.76 32 36 C27.96689891 34.99172473 27.05159052 34.43894943 24.21484375 31.69140625 C23.51939453 31.02689453 22.82394531 30.36238281 22.10742188 29.67773438 C21.39134766 28.97970703 20.67527344 28.28167969 19.9375 27.5625 C18.51088059 26.18696813 17.08256289 24.81319489 15.65234375 23.44140625 C15.02320068 22.82982666 14.39405762 22.21824707 13.74584961 21.58813477 C11.8827676 19.81382785 11.8827676 19.81382785 9 18 C8.67 23.94 8.34 29.88 8 36 C5.36 36 2.72 36 0 36 C0 24.12 0 12.24 0 0 Z " fill="#3E3F3E" transform="translate(388,154)"/>
<path d="M0 0 C1.093125 0.66 2.18625 1.32 3.3125 2 C1.4375 6.75 1.4375 6.75 0.3125 9 C-0.26757812 8.77183594 -0.84765625 8.54367188 -1.4453125 8.30859375 C-6.26205796 6.53609501 -9.57224517 5.55723582 -14.6875 7 C-14.6875 7.99 -14.6875 8.98 -14.6875 10 C-13.65109375 10.31453125 -12.6146875 10.6290625 -11.546875 10.953125 C-10.17687869 11.38476767 -8.80709814 11.8170956 -7.4375 12.25 C-6.75558594 12.45496094 -6.07367188 12.65992188 -5.37109375 12.87109375 C-1.18821253 14.21124016 1.53892304 15.56735524 4.3125 19 C5.84464888 22.06429776 5.54188548 24.6165642 5.3125 28 C3.87536122 31.71965332 2.65680435 32.80030348 -0.8125 34.8125 C-8.21366343 37.53924442 -14.69459995 36.1347483 -21.6875 33 C-22.6775 32.34 -23.6675 31.68 -24.6875 31 C-22.8125 26.25 -22.8125 26.25 -21.6875 24 C-19.53084791 24.46213973 -17.7775746 24.94961929 -15.84375 26.03125 C-13.35508912 27.14934402 -11.6490024 27.20475007 -8.9375 27.125 C-7.73867188 27.09792969 -7.73867188 27.09792969 -6.515625 27.0703125 C-5.91234375 27.04710937 -5.3090625 27.02390625 -4.6875 27 C-4.3575 25.68 -4.0275 24.36 -3.6875 23 C-4.79609375 22.68546875 -5.9046875 22.3709375 -7.046875 22.046875 C-8.51061608 21.61525904 -9.97414695 21.18292971 -11.4375 20.75 C-12.16710937 20.54503906 -12.89671875 20.34007812 -13.6484375 20.12890625 C-17.93934185 18.84163495 -20.88692985 17.70100663 -23.6875 14 C-24.80008463 9.99469535 -24.92017866 7.71172297 -23.625 3.75 C-18.24320989 -3.88866984 -7.85158195 -3.91881799 0 0 Z " fill="#3E3F3E" transform="translate(487.6875,155)"/>
<path d="M0 0 C1.87907267 0.9496028 3.697652 2.01725864 5.5 3.10546875 C4.62572627 5.87400221 3.97936461 7.6945848 1.75 9.60546875 C-1.598221 10.34951786 -3.4920042 8.60946665 -6.5 7.10546875 C-9.77885532 7.31654168 -9.77885532 7.31654168 -12.5 8.10546875 C-12.83 9.09546875 -13.16 10.08546875 -13.5 11.10546875 C-12.39140625 11.42 -11.2828125 11.73453125 -10.140625 12.05859375 C-8.67688392 12.49020971 -7.21335305 12.92253904 -5.75 13.35546875 C-5.02039063 13.56042969 -4.29078125 13.76539063 -3.5390625 13.9765625 C0.71128186 15.25166581 3.84725347 16.33040638 6.5 20.10546875 C7.36011659 23.85311959 7.2530373 27.34028227 6.5 31.10546875 C4.20725186 34.40443865 1.28783454 35.84285724 -2.5 37.10546875 C-9.20135277 37.94142482 -15.76210747 36.79411395 -21.5 33.10546875 C-22.37109375 31.10546875 -22.37109375 31.10546875 -22.5 29.10546875 C-21.0625 26.85546875 -21.0625 26.85546875 -19.5 25.10546875 C-13.75 26.98046875 -13.75 26.98046875 -11.5 28.10546875 C-9.79297265 28.17542889 -8.08331997 28.18987029 -6.375 28.16796875 C-5.46492187 28.15894531 -4.55484375 28.14992187 -3.6171875 28.140625 C-2.91851563 28.12902344 -2.21984375 28.11742187 -1.5 28.10546875 C-1.81746519 26.12650082 -1.81746519 26.12650082 -2.5 24.10546875 C-5.0385946 22.97647424 -5.0385946 22.97647424 -8.5 22.10546875 C-10.40382794 21.52698751 -12.29933486 20.92068987 -14.1875 20.29296875 C-15.11949219 19.99777344 -16.05148437 19.70257813 -17.01171875 19.3984375 C-20.14732662 17.7691028 -21.08450935 16.31517664 -22.5 13.10546875 C-22.84038677 9.95157261 -22.43927607 7.13265367 -21.5 4.10546875 C-15.96522684 -1.72060826 -7.46439224 -2.67085285 0 0 Z " fill="#3E3F3E" transform="translate(984.5,153.89453125)"/>
<path d="M0 0 C2.31 0 4.62 0 7 0 C7 5.28 7 10.56 7 16 C12.61 16 18.22 16 24 16 C24 10.72 24 5.44 24 0 C26.64 0 29.28 0 32 0 C32 12.21 32 24.42 32 37 C29.36 37 26.72 37 24 37 C24 32.38 24 27.76 24 23 C18.39 23 12.78 23 7 23 C7 27.62 7 32.24 7 37 C4.69 37 2.38 37 0 37 C0 24.79 0 12.58 0 0 Z " fill="#3E3F3E" transform="translate(745,153)"/>
<path d="M0 0 C3.0525 -0.061875 6.105 -0.12375 9.25 -0.1875 C10.68327637 -0.22846802 10.68327637 -0.22846802 12.14550781 -0.27026367 C18.35221495 -0.33133263 18.35221495 -0.33133263 21.55078125 1.3046875 C23.91340369 4.06850997 23.9395269 6.43208739 24 10 C22.5625 13.4375 22.5625 13.4375 21 16 C21.66 16 22.32 16 23 16 C25.10188936 19.41557022 25.4871351 22.02173 25 26 C22.12275188 30.62414877 22.12275188 30.62414877 19.11621094 31.63061523 C16.99062183 32.00163696 15.04666276 32.11398987 12.890625 32.09765625 C11.8701709 32.09390991 11.8701709 32.09390991 10.82910156 32.09008789 C9.97799805 32.08098389 9.12689453 32.07187988 8.25 32.0625 C5.5275 32.041875 2.805 32.02125 0 32 C0 21.44 0 10.88 0 0 Z M7 6 C7 7.98 7 9.96 7 12 C9.64 12 12.28 12 15 12 C15.66 10.68 16.32 9.36 17 8 C15.23863645 5.81668311 15.23863645 5.81668311 13.0546875 5.8046875 C10.02734375 5.90234375 10.02734375 5.90234375 7 6 Z M7 19 C7 20.98 7 22.96 7 25 C9.97 25 12.94 25 16 25 C16.66 23.68 17.32 22.36 18 21 C17.67 20.34 17.34 19.68 17 19 C13.7 19 10.4 19 7 19 Z " fill="#3E3F3E" transform="translate(473,103)"/>
<path d="M0 0 C3.65244638 1.21748213 4.08667972 2.59622018 5.75369263 5.91525269 C6.08505219 6.60064117 6.41641174 7.28602966 6.7578125 7.9921875 C7.1063327 8.69393097 7.45485291 9.39567444 7.81393433 10.11868286 C8.9270421 12.36627731 10.02586356 14.62054584 11.125 16.875 C11.872824 18.38715125 12.6215117 19.8988757 13.37109375 21.41015625 C18.80269454 32.40808363 18.80269454 32.40808363 20 36 C17.03 36 14.06 36 11 36 C10.34 34.68 9.68 33.36 9 32 C3.39 31.67 -2.22 31.34 -8 31 C-8.495 33.475 -8.495 33.475 -9 36 C-11.97 36 -14.94 36 -18 36 C-16.67358178 31.74991017 -15.05323232 27.84954153 -13.06640625 23.8671875 C-12.49986328 22.73152344 -11.93332031 21.59585938 -11.34960938 20.42578125 C-10.75986328 19.25402344 -10.17011719 18.08226562 -9.5625 16.875 C-8.97662109 15.69550781 -8.39074219 14.51601562 -7.78710938 13.30078125 C-7.21927734 12.16769531 -6.65144531 11.03460938 -6.06640625 9.8671875 C-5.55021729 8.83706543 -5.03402832 7.80694336 -4.50219727 6.74560547 C-3.1645156 4.3006895 -1.73895875 2.17085912 0 0 Z M0 16 C-2.2013866 19.80427492 -2.2013866 19.80427492 -3 24 C-0.36 24 2.28 24 5 24 C4.01 21.36 3.02 18.72 2 16 C1.34 16 0.68 16 0 16 Z " fill="#3E3F3E" transform="translate(869,154)"/>
<path d="M0 0 C3.82362952 2.15595613 5.8470156 4.34067307 7.75 8.375 C9.19524613 13.78463656 9.07298596 18.42625131 6.83984375 23.58203125 C4.43470737 27.53886852 1.14342672 29.91052443 -3.25 31.375 C-9.60460515 32.165093 -14.3738026 31.65996175 -19.62109375 27.84375 C-22.93623728 24.85455583 -24.03986612 22.15714807 -24.55859375 17.7578125 C-24.82597721 11.77814611 -24.40809543 7.98261926 -20.25 3.375 C-14.16476427 -2.11655419 -7.52526279 -3.38988473 0 0 Z M-16.25 9.375 C-17.82455739 12.52411479 -17.59799118 14.89508816 -17.25 18.375 C-14.93898577 22.04543437 -13.38469705 23.94043517 -9.3125 25.5 C-5.18357782 25.33147256 -3.35277682 24.05467089 -0.25 21.375 C1.5134617 18.46145458 1.75837516 16.77700766 1.6875 13.375 C0.46494428 9.46282171 -0.9579853 7.80822826 -4.25 5.375 C-9.71739901 4.49631087 -12.36435798 5.48935798 -16.25 9.375 Z " fill="#3E3F3E" transform="translate(525.25,103.625)"/>
<path d="M0 0 C3.88446678 2.58964452 6.69907021 5.64814041 8.8125 9.875 C9.53160796 16.98355901 9.32642888 22.20365346 4.8125 27.875 C0.04070727 31.59699833 -3.72308627 32.53295199 -9.7578125 32.2578125 C-14.96019428 31.43814463 -18.10401817 29.12955791 -21.5625 25.125 C-24.20377612 19.84244776 -24.91095759 15.35926568 -23.1875 9.75 C-21.30539733 5.33228679 -18.15786181 2.48280583 -14.1875 -0.125 C-9.20670617 -1.78526461 -4.88476371 -1.72403425 0 0 Z M-16.1875 10.875 C-17.54459188 14.62695992 -17.39030224 16.30039366 -16.0625 20.0625 C-13.9779985 23.18925224 -12.67549057 24.49602698 -9.1875 25.875 C-5.25372284 25.875 -3.51621776 25.11081926 -0.3125 22.8125 C2.09521947 19.48418191 2.49570324 17.80990958 2.24609375 13.80859375 C1.56444607 10.76881354 0.01017713 9.00803956 -2.1875 6.875 C-8.06446664 3.93651668 -12.02425008 6.42129078 -16.1875 10.875 Z " fill="#3E3F3E" transform="translate(951.1875,103.125)"/>
<path d="M0 0 C3.88446678 2.58964452 6.69907021 5.64814041 8.8125 9.875 C9.40770744 15.47845293 9.93404174 21.08849855 6.6875 25.9375 C3.49112535 29.58795573 0.34289333 31.53984857 -4.546875 32.1875 C-10.64883585 32.48335265 -14.31649925 31.57696057 -19.1875 27.875 C-22.87382884 24.09414991 -23.4911138 20.99371131 -23.6875 15.875 C-23.50380179 10.75678771 -22.75746587 7.73442256 -19.1875 3.875 C-13.37010796 -1.37484159 -7.3959011 -2.61031804 0 0 Z M-15.1875 9.875 C-17.26024828 13.76140303 -17.35492078 15.29395141 -16.125 19.5625 C-14.05705893 23.09801215 -13.00099925 24.45602353 -9.1875 25.875 C-5.1499232 25.875 -3.54229767 25.15883814 -0.375 22.625 C1.90441226 19.75945316 2.8125 18.50828035 2.8125 14.875 C1.26922756 10.81375674 -0.25946228 7.89513368 -4.1875 5.875 C-9.24337996 5.1219966 -11.69270149 6.18604602 -15.1875 9.875 Z " fill="#3E3F3E" transform="translate(375.1875,103.125)"/>
<path d="M0 0 C4.5478125 -0.12375 4.5478125 -0.12375 9.1875 -0.25 C10.60712036 -0.30462402 10.60712036 -0.30462402 12.05541992 -0.36035156 C16.1299408 -0.41398075 18.4387633 -0.33035278 22.01953125 1.77734375 C24.88078975 4.98849974 25.84015554 7.71616839 26 12 C25.07292098 15.76812761 23.14422311 18.78366534 21 22 C21.433125 22.55429688 21.86625 23.10859375 22.3125 23.6796875 C22.869375 24.40414062 23.42625 25.12859375 24 25.875 C24.556875 26.59429687 25.11375 27.31359375 25.6875 28.0546875 C27 30 27 30 27 32 C21.97520661 32.79338843 21.97520661 32.79338843 19 32 C16.89937398 29.8393561 15.34433918 27.61298446 13.73828125 25.06640625 C11.60634978 22.53204278 10.23282475 22.30290521 7 22 C7 25.3 7 28.6 7 32 C4.69 32 2.38 32 0 32 C0 21.44 0 10.88 0 0 Z M7 6 C7 9.3 7 12.6 7 16 C12.71337373 16.59236584 12.71337373 16.59236584 17.5 14 C17.995 13.34 18.49 12.68 19 12 C17.91215032 8.75016865 17.91215032 8.75016865 16 6 C12.99668982 5.85806663 10.00782866 5.95763622 7 6 Z " fill="#3E3F3E" transform="translate(857,103)"/>
<path d="M0 0 C4.5478125 -0.12375 4.5478125 -0.12375 9.1875 -0.25 C10.60712036 -0.30462402 10.60712036 -0.30462402 12.05541992 -0.36035156 C16.21574001 -0.41511005 18.4337676 -0.35090458 22.05078125 1.890625 C25.33911571 5.44914326 25.27183069 8.05666179 25.2265625 12.734375 C24.92282134 15.77178658 23.95096075 17.67385449 22 20 C21.34 20 20.68 20 20 20 C20.61875 21.11375 21.2375 22.2275 21.875 23.375 C22.22304688 24.00148438 22.57109375 24.62796875 22.9296875 25.2734375 C24.00897274 27.1612614 24.00897274 27.1612614 26 29 C26 29.99 26 30.98 26 32 C20.88668165 32.79344595 20.88668165 32.79344595 18 32 C16.12290677 29.8151155 14.84295875 27.62130103 13.51953125 25.06640625 C12.13486166 22.74593529 12.13486166 22.74593529 9.32421875 22.21484375 C8.55722656 22.14394531 7.79023437 22.07304688 7 22 C7 25.3 7 28.6 7 32 C4.69 32 2.38 32 0 32 C0 21.44 0 10.88 0 0 Z M7 6 C7 9.3 7 12.6 7 16 C12.08303686 16.11320856 12.08303686 16.11320856 17 15 C17.67673447 11.59679066 17.67673447 11.59679066 18 8 C16.21342243 5.78629949 16.21342243 5.78629949 13.8359375 5.8046875 C10.41796875 5.90234375 10.41796875 5.90234375 7 6 Z " fill="#3E3F3E" transform="translate(965,103)"/>
<path d="M0 0 C3.69980115 1.84990058 5.882628 3.53919573 8.875 6.3125 C12.51121673 9.66944617 16.18622057 12.82185047 20 16 C20.33 10.72 20.66 5.44 21 0 C23.31 0 25.62 0 28 0 C28 10.56 28 21.12 28 32 C24.73990487 30.36995244 22.86559308 29.17409954 20.25 26.8125 C19.56421875 26.19890625 18.8784375 25.5853125 18.171875 24.953125 C17.45515625 24.30859375 16.7384375 23.6640625 16 23 C14.5018955 21.68533687 13.00197793 20.37273607 11.5 19.0625 C9.7675 17.5465625 9.7675 17.5465625 8 16 C7.67 21.28 7.34 26.56 7 32 C4.69 32 2.38 32 0 32 C0 21.44 0 10.88 0 0 Z " fill="#3E3F3E" transform="translate(770,103)"/>
<path d="M0 0 C7.92 0 15.84 0 24 0 C24 1.98 24 3.96 24 6 C18.39 6 12.78 6 7 6 C7 8.31 7 10.62 7 13 C11.95 13 16.9 13 22 13 C22 14.98 22 16.96 22 19 C17.05 19 12.1 19 7 19 C7 20.98 7 22.96 7 25 C12.61 25 18.22 25 24 25 C24 27.31 24 29.62 24 32 C16.08 32 8.16 32 0 32 C0 21.44 0 10.88 0 0 Z " fill="#3E3F3E" transform="translate(828,103)"/>
<path d="M0 0 C7.92 0 15.84 0 24 0 C24 1.98 24 3.96 24 6 C18.39 6 12.78 6 7 6 C7 8.31 7 10.62 7 13 C11.95 13 16.9 13 22 13 C22 14.98 22 16.96 22 19 C17.05 19 12.1 19 7 19 C7 20.98 7 22.96 7 25 C12.61 25 18.22 25 24 25 C24 27.31 24 29.62 24 32 C16.08 32 8.16 32 0 32 C0 21.44 0 10.88 0 0 Z " fill="#3E3F3E" transform="translate(741,103)"/>
<path d="M0 0 C7.92 0 15.84 0 24 0 C24 1.98 24 3.96 24 6 C18.39 6 12.78 6 7 6 C7 8.31 7 10.62 7 13 C11.95 13 16.9 13 22 13 C22 14.98 22 16.96 22 19 C17.05 19 12.1 19 7 19 C7 20.98 7 22.96 7 25 C12.61 25 18.22 25 24 25 C24 27.31 24 29.62 24 32 C16.08 32 8.16 32 0 32 C0 21.44 0 10.88 0 0 Z " fill="#3E3F3E" transform="translate(665,103)"/>
<path d="M0 0 C1.95208874 1.71936641 3.79450567 3.47127806 5.5703125 5.37109375 C1.82474163 9.27537525 1.82474163 9.27537525 -1.4296875 9.37109375 C-2.2134375 8.73171875 -2.9971875 8.09234375 -3.8046875 7.43359375 C-6.28283729 5.15933618 -6.28283729 5.15933618 -9.4296875 4.80859375 C-13.60001876 5.59053086 -14.98840019 6.92457049 -17.4296875 10.37109375 C-18.09126978 14.23533569 -17.67152695 17.64557541 -16.4296875 21.37109375 C-13.51722377 23.03535874 -11.72833021 23.389378 -8.3671875 23.18359375 C-5.40690374 22.56879538 -5.40690374 22.56879538 -3.3671875 20.74609375 C-1.4296875 19.37109375 -1.4296875 19.37109375 1.1953125 19.55859375 C3.5703125 20.37109375 3.5703125 20.37109375 5.5703125 22.37109375 C2.6893534 26.47092016 0.32665967 28.69756419 -4.4296875 30.37109375 C-9.31430815 31.03314151 -13.82766088 31.04229305 -18.3046875 28.80859375 C-22.82497074 25.28277283 -25.01782955 22.29231301 -25.80859375 16.68359375 C-26.05871778 10.74516526 -25.54981858 6.9366444 -21.4296875 2.37109375 C-15.4036108 -3.2030272 -7.17086812 -4.80747911 0 0 Z " fill="#3E3F3E" transform="translate(344.4296875,104.62890625)"/>
<path d="M0 0 C1.81122707 1.48660796 3.38491448 2.82492135 4.79296875 4.69921875 C4.79296875 5.68921875 4.79296875 6.67921875 4.79296875 7.69921875 C2.10546875 8.94921875 2.10546875 8.94921875 -1.20703125 9.69921875 C-2.91453105 8.4185939 -4.58076721 7.08154318 -6.20703125 5.69921875 C-9.20703125 4.94921875 -9.20703125 4.94921875 -12.20703125 5.69921875 C-15.07676121 7.69555264 -16.8591389 9.17151758 -17.65625 12.671875 C-17.84078263 16.07618393 -17.47486921 18.29746182 -15.58203125 21.13671875 C-12.68168129 23.04484372 -10.67017375 23.55492115 -7.20703125 23.69921875 C-4.45748797 22.733163 -3.51695368 22.31906361 -2.20703125 19.69921875 C-0.22703125 20.02921875 1.75296875 20.35921875 3.79296875 20.69921875 C4.12296875 22.01921875 4.45296875 23.33921875 4.79296875 24.69921875 C-0.75551226 29.50790229 -4.1883127 31.0812336 -11.63671875 30.97265625 C-15.83982469 30.52551732 -17.84936854 29.31819567 -21.20703125 26.69921875 C-25.17834289 21.70962208 -25.84548584 17.62195501 -25.59375 11.28515625 C-24.85069556 6.31644877 -22.2757492 3.68778285 -18.70703125 0.38671875 C-13.21165119 -3.32266279 -5.73779474 -3.38174451 0 0 Z " fill="#3E3F3E" transform="translate(732.20703125,104.30078125)"/>
<path d="M0 0 C2.64 0 5.28 0 8 0 C8 9.9 8 19.8 8 30 C14.27 30 20.54 30 27 30 C27 32.31 27 34.62 27 37 C18.09 37 9.18 37 0 37 C0 24.79 0 12.58 0 0 Z " fill="#3E3F3E" transform="translate(497,153)"/>
<path d="M0 0 C2.64 0 5.28 0 8 0 C10.31 4.95 12.62 9.9 15 15 C17.64 10.05 20.28 5.1 23 0 C25.64 0 28.28 0 31 0 C26.21258055 10.77729028 21.42839998 21.52638121 16 32 C12.97256227 29.40675386 11.57372416 26.43710017 9.86328125 22.87109375 C9.57897751 22.28078873 9.29467377 21.6904837 9.00175476 21.08229065 C8.40463878 19.83894222 7.81060582 18.59410902 7.21948242 17.34790039 C6.31230403 15.43708723 5.39426152 13.53178907 4.47460938 11.62695312 C0 2.28290908 0 2.28290908 0 0 Z " fill="#3E3F3E" transform="translate(632,103)"/>
<path d="M0 0 C7.59 0 15.18 0 23 0 C23 1.98 23 3.96 23 6 C17.39 6 11.78 6 6 6 C6 8.31 6 10.62 6 13 C10.95 13 15.9 13 21 13 C21 14.98 21 16.96 21 19 C16.05 19 11.1 19 6 19 C6 23.29 6 27.58 6 32 C4.02 32 2.04 32 0 32 C0 21.44 0 10.88 0 0 Z " fill="#3E3F3E" transform="translate(902,103)"/>
<path d="M0 0 C2.31 0 4.62 0 7 0 C7 8.25 7 16.5 7 25 C12.28 25 17.56 25 23 25 C23 27.31 23 29.62 23 32 C15.41 32 7.82 32 0 32 C0 21.44 0 10.88 0 0 Z " fill="#3E3F3E" transform="translate(389,103)"/>
<path d="M0 0 C7.92 0 15.84 0 24 0 C24 1.98 24 3.96 24 6 C21.03 6 18.06 6 15 6 C15 14.58 15 23.16 15 32 C12.69 32 10.38 32 8 32 C8 23.42 8 14.84 8 6 C5.36 6 2.72 6 0 6 C0 4.02 0 2.04 0 0 Z " fill="#3E3F3E" transform="translate(801,103)"/>
<path d="M0 0 C7.92 0 15.84 0 24 0 C24 1.98 24 3.96 24 6 C21.36 6 18.72 6 16 6 C16 14.58 16 23.16 16 32 C13.69 32 11.38 32 9 32 C9 23.42 9 14.84 9 6 C6.03 6 3.06 6 0 6 C0 4.02 0 2.04 0 0 Z " fill="#3E3F3E" transform="translate(593,103)"/>
<path d="M0 0 C9.24 0 18.48 0 28 0 C26.51989357 2.96021286 25.53553428 4.7459405 23.46875 7.12890625 C22.74751953 7.96905273 22.74751953 7.96905273 22.01171875 8.82617188 C21.26341797 9.6856543 21.26341797 9.6856543 20.5 10.5625 C16.55102588 15.12421641 16.55102588 15.12421641 13 20 C12.01 20 11.02 20 10 20 C8.51494131 17.41989804 7.03682689 14.83622441 5.5625 12.25 C5.14162109 11.52039063 4.72074219 10.79078125 4.28710938 10.0390625 C3.68286133 8.97558594 3.68286133 8.97558594 3.06640625 7.890625 C2.69459229 7.24125977 2.32277832 6.59189453 1.93969727 5.92285156 C1 4 1 4 0 0 Z " fill="#48377A" transform="translate(19,184)"/>
<path d="M0 0 C2.64 0 5.28 0 8 0 C8 11.88 8 23.76 8 36 C5.36 36 2.72 36 0 36 C0 24.12 0 12.24 0 0 Z " fill="#3E3F3E" transform="translate(528,154)"/>
<path d="M0 0 C7.92 0 15.84 0 24 0 C22.44192322 4.67423033 20.84977236 8.50849288 18.5625 12.8125 C17.96566406 13.95332031 17.36882812 15.09414062 16.75390625 16.26953125 C15 19 15 19 12 20 C9.99254745 17.04666001 7.99533174 14.08653968 6 11.125 C5.42765625 10.28324219 4.8553125 9.44148437 4.265625 8.57421875 C3.72421875 7.76855469 3.1828125 6.96289062 2.625 6.1328125 C2.12226563 5.38918457 1.61953125 4.64555664 1.1015625 3.87939453 C0 2 0 2 0 0 Z " fill="#38286B" transform="translate(228,184)"/>
<path d="M0 0 C2.31 0 4.62 0 7 0 C7 10.56 7 21.12 7 32 C4.69 32 2.38 32 0 32 C0 21.44 0 10.88 0 0 Z " fill="#3E3F3E" transform="translate(621,103)"/>
<path d="M0 0 C2.97 0 5.94 0 9 0 C9.10815225 1.76949095 9.18566083 3.54087487 9.25 5.3125 C9.29640625 6.29863281 9.3428125 7.28476563 9.390625 8.30078125 C9 11 9 11 7.14453125 12.859375 C5 14 5 14 2.4375 13.9375 C0 13 0 13 -2 11.5 C-3.6418813 7.39529674 -1.63571312 3.92571149 0 0 Z " fill="#040707" transform="translate(85,234)"/>
<path d="M0 0 C2.05078125 0.03255208 4.1015625 0.06510417 6.15234375 0.09765625 C6.77456597 8.34210069 6.77456597 8.34210069 4.40234375 11.22265625 C2.15234375 12.09765625 2.15234375 12.09765625 0.08984375 11.97265625 C-2.06753594 10.99835575 -3.30309501 9.87390168 -4.84765625 8.09765625 C-2.67780446 0.14153301 -2.67780446 0.14153301 0 0 Z " fill="#040707" transform="translate(144.84765625,217.90234375)"/>
<path d="M0 0 C1.32 0 2.64 0 4 0 C4.1875 2.875 4.1875 2.875 4 6 C3.01 6.66 2.02 7.32 1 8 C0.01 7.01 -0.98 6.02 -2 5 C-1.34 3.35 -0.68 1.7 0 0 Z " fill="#040707" transform="translate(125,187)"/>
<path d="M0 0 C0.99 0.495 0.99 0.495 2 1 C1.01 1.495 1.01 1.495 0 2 C0 1.34 0 0.68 0 0 Z M-1 2 C-0.67 2.99 -0.34 3.98 0 5 C-0.99 5.99 -1.98 6.98 -3 8 C-3.66 7.67 -4.32 7.34 -5 7 C-3.68 5.35 -2.36 3.7 -1 2 Z " fill="#144A8D" transform="translate(61,164)"/>
</svg>
